ISO-10303-21;
HEADER;
/* Generated by software containing ST-Developer
 * from STEP Tools, Inc. (www.steptools.com) 
 */

FILE_DESCRIPTION(
/* description */ (''),
/* implementation_level */ '2;1');

FILE_NAME(
/* name */ 'Component1.step',
/* time_stamp */ '2025-09-19T09:11:28+05:30',
/* author */ (''),
/* organization */ (''),
/* preprocessor_version */ 'ST-DEVELOPER v20.1',
/* originating_system */ 'Autodesk Translation Framework v14.17.0.0',
/* authorisation */ '');

FILE_SCHEMA (('AUTOMOTIVE_DESIGN { 1 0 10303 214 3 1 1 }'));
ENDSEC;

DATA;
#10=MECHANICAL_DESIGN_GEOMETRIC_PRESENTATION_REPRESENTATION('',(#13),#1099);
#11=SHAPE_REPRESENTATION_RELATIONSHIP('SRR','None',#1106,#12);
#12=ADVANCED_BREP_SHAPE_REPRESENTATION('',(#14),#1098);
#13=STYLED_ITEM('',(#1115),#14);
#14=MANIFOLD_SOLID_BREP('Body2',#643);
#15=FACE_BOUND('',#79,.T.);
#16=FACE_BOUND('',#82,.T.);
#17=FACE_BOUND('',#83,.T.);
#18=FACE_BOUND('',#84,.T.);
#19=FACE_BOUND('',#85,.T.);
#20=FACE_BOUND('',#86,.T.);
#21=FACE_BOUND('',#90,.T.);
#22=FACE_BOUND('',#113,.T.);
#23=FACE_BOUND('',#114,.T.);
#24=FACE_BOUND('',#115,.T.);
#25=FACE_BOUND('',#116,.T.);
#26=FACE_BOUND('',#117,.T.);
#27=PLANE('',#663);
#28=PLANE('',#667);
#29=PLANE('',#673);
#30=PLANE('',#684);
#31=PLANE('',#688);
#32=PLANE('',#692);
#33=PLANE('',#694);
#34=PLANE('',#695);
#35=PLANE('',#702);
#36=PLANE('',#705);
#37=PLANE('',#708);
#38=PLANE('',#711);
#39=PLANE('',#716);
#40=PLANE('',#719);
#41=PLANE('',#722);
#42=FACE_OUTER_BOUND('',#74,.T.);
#43=FACE_OUTER_BOUND('',#75,.T.);
#44=FACE_OUTER_BOUND('',#76,.T.);
#45=FACE_OUTER_BOUND('',#77,.T.);
#46=FACE_OUTER_BOUND('',#78,.T.);
#47=FACE_OUTER_BOUND('',#80,.T.);
#48=FACE_OUTER_BOUND('',#81,.T.);
#49=FACE_OUTER_BOUND('',#87,.T.);
#50=FACE_OUTER_BOUND('',#88,.T.);
#51=FACE_OUTER_BOUND('',#89,.T.);
#52=FACE_OUTER_BOUND('',#91,.T.);
#53=FACE_OUTER_BOUND('',#92,.T.);
#54=FACE_OUTER_BOUND('',#93,.T.);
#55=FACE_OUTER_BOUND('',#94,.T.);
#56=FACE_OUTER_BOUND('',#95,.T.);
#57=FACE_OUTER_BOUND('',#96,.T.);
#58=FACE_OUTER_BOUND('',#97,.T.);
#59=FACE_OUTER_BOUND('',#98,.T.);
#60=FACE_OUTER_BOUND('',#99,.T.);
#61=FACE_OUTER_BOUND('',#100,.T.);
#62=FACE_OUTER_BOUND('',#101,.T.);
#63=FACE_OUTER_BOUND('',#102,.T.);
#64=FACE_OUTER_BOUND('',#103,.T.);
#65=FACE_OUTER_BOUND('',#104,.T.);
#66=FACE_OUTER_BOUND('',#105,.T.);
#67=FACE_OUTER_BOUND('',#106,.T.);
#68=FACE_OUTER_BOUND('',#107,.T.);
#69=FACE_OUTER_BOUND('',#108,.T.);
#70=FACE_OUTER_BOUND('',#109,.T.);
#71=FACE_OUTER_BOUND('',#110,.T.);
#72=FACE_OUTER_BOUND('',#111,.T.);
#73=FACE_OUTER_BOUND('',#112,.T.);
#74=EDGE_LOOP('',(#414,#415,#416,#417));
#75=EDGE_LOOP('',(#418,#419,#420,#421));
#76=EDGE_LOOP('',(#422,#423,#424,#425));
#77=EDGE_LOOP('',(#426,#427,#428,#429));
#78=EDGE_LOOP('',(#430,#431,#432,#433,#434,#435));
#79=EDGE_LOOP('',(#436));
#80=EDGE_LOOP('',(#437,#438,#439,#440));
#81=EDGE_LOOP('',(#441,#442,#443,#444,#445,#446));
#82=EDGE_LOOP('',(#447));
#83=EDGE_LOOP('',(#448));
#84=EDGE_LOOP('',(#449));
#85=EDGE_LOOP('',(#450,#451,#452,#453,#454,#455,#456,#457));
#86=EDGE_LOOP('',(#458));
#87=EDGE_LOOP('',(#459,#460,#461,#462,#463,#464,#465,#466,#467,#468,#469,
#470,#471));
#88=EDGE_LOOP('',(#472,#473,#474,#475));
#89=EDGE_LOOP('',(#476,#477,#478,#479,#480,#481));
#90=EDGE_LOOP('',(#482));
#91=EDGE_LOOP('',(#483,#484,#485,#486));
#92=EDGE_LOOP('',(#487,#488,#489,#490));
#93=EDGE_LOOP('',(#491,#492,#493,#494));
#94=EDGE_LOOP('',(#495,#496,#497,#498));
#95=EDGE_LOOP('',(#499,#500,#501,#502));
#96=EDGE_LOOP('',(#503,#504,#505,#506));
#97=EDGE_LOOP('',(#507,#508,#509,#510));
#98=EDGE_LOOP('',(#511,#512,#513,#514));
#99=EDGE_LOOP('',(#515,#516,#517,#518));
#100=EDGE_LOOP('',(#519,#520,#521,#522));
#101=EDGE_LOOP('',(#523,#524,#525,#526));
#102=EDGE_LOOP('',(#527,#528,#529,#530));
#103=EDGE_LOOP('',(#531,#532,#533,#534));
#104=EDGE_LOOP('',(#535,#536,#537,#538));
#105=EDGE_LOOP('',(#539,#540,#541,#542));
#106=EDGE_LOOP('',(#543,#544,#545,#546));
#107=EDGE_LOOP('',(#547,#548,#549,#550));
#108=EDGE_LOOP('',(#551,#552,#553,#554,#555,#556,#557,#558,#559,#560,#561,
#562,#563));
#109=EDGE_LOOP('',(#564,#565,#566,#567));
#110=EDGE_LOOP('',(#568,#569,#570,#571));
#111=EDGE_LOOP('',(#572,#573,#574,#575));
#112=EDGE_LOOP('',(#576,#577,#578,#579,#580,#581));
#113=EDGE_LOOP('',(#582));
#114=EDGE_LOOP('',(#583,#584,#585,#586,#587,#588,#589,#590));
#115=EDGE_LOOP('',(#591));
#116=EDGE_LOOP('',(#592));
#117=EDGE_LOOP('',(#593));
#118=LINE('',#918,#174);
#119=LINE('',#925,#175);
#120=LINE('',#928,#176);
#121=LINE('',#931,#177);
#122=LINE('',#933,#178);
#123=LINE('',#934,#179);
#124=LINE('',#939,#180);
#125=LINE('',#943,#181);
#126=LINE('',#947,#182);
#127=LINE('',#950,#183);
#128=LINE('',#956,#184);
#129=LINE('',#959,#185);
#130=LINE('',#962,#186);
#131=LINE('',#966,#187);
#132=LINE('',#969,#188);
#133=LINE('',#980,#189);
#134=LINE('',#984,#190);
#135=LINE('',#988,#191);
#136=LINE('',#991,#192);
#137=LINE('',#996,#193);
#138=LINE('',#998,#194);
#139=LINE('',#1002,#195);
#140=LINE('',#1003,#196);
#141=LINE('',#1005,#197);
#142=LINE('',#1006,#198);
#143=LINE('',#1011,#199);
#144=LINE('',#1012,#200);
#145=LINE('',#1015,#201);
#146=LINE('',#1019,#202);
#147=LINE('',#1022,#203);
#148=LINE('',#1024,#204);
#149=LINE('',#1026,#205);
#150=LINE('',#1029,#206);
#151=LINE('',#1030,#207);
#152=LINE('',#1032,#208);
#153=LINE('',#1035,#209);
#154=LINE('',#1039,#210);
#155=LINE('',#1043,#211);
#156=LINE('',#1048,#212);
#157=LINE('',#1049,#213);
#158=LINE('',#1050,#214);
#159=LINE('',#1054,#215);
#160=LINE('',#1057,#216);
#161=LINE('',#1058,#217);
#162=LINE('',#1062,#218);
#163=LINE('',#1065,#219);
#164=LINE('',#1066,#220);
#165=LINE('',#1070,#221);
#166=LINE('',#1073,#222);
#167=LINE('',#1074,#223);
#168=LINE('',#1079,#224);
#169=LINE('',#1083,#225);
#170=LINE('',#1084,#226);
#171=LINE('',#1088,#227);
#172=LINE('',#1091,#228);
#173=LINE('',#1092,#229);
#174=VECTOR('',#729,5.);
#175=VECTOR('',#736,10.);
#176=VECTOR('',#739,10.);
#177=VECTOR('',#742,10.);
#178=VECTOR('',#743,10.);
#179=VECTOR('',#744,10.);
#180=VECTOR('',#749,10.);
#181=VECTOR('',#754,10.);
#182=VECTOR('',#757,10.);
#183=VECTOR('',#760,10.);
#184=VECTOR('',#765,3.);
#185=VECTOR('',#768,10.);
#186=VECTOR('',#771,10.);
#187=VECTOR('',#774,10.);
#188=VECTOR('',#777,10.);
#189=VECTOR('',#786,10.);
#190=VECTOR('',#789,10.);
#191=VECTOR('',#792,10.);
#192=VECTOR('',#795,10.);
#193=VECTOR('',#800,10.);
#194=VECTOR('',#801,10.);
#195=VECTOR('',#804,10.);
#196=VECTOR('',#805,10.);
#197=VECTOR('',#806,10.);
#198=VECTOR('',#807,10.);
#199=VECTOR('',#812,10.);
#200=VECTOR('',#813,10.);
#201=VECTOR('',#816,10.);
#202=VECTOR('',#819,10.);
#203=VECTOR('',#824,10.);
#204=VECTOR('',#827,10.);
#205=VECTOR('',#830,10.);
#206=VECTOR('',#833,10.);
#207=VECTOR('',#834,10.);
#208=VECTOR('',#837,10.);
#209=VECTOR('',#840,2.3);
#210=VECTOR('',#845,2.3);
#211=VECTOR('',#850,2.3);
#212=VECTOR('',#855,10.);
#213=VECTOR('',#856,10.);
#214=VECTOR('',#857,10.);
#215=VECTOR('',#862,10.);
#216=VECTOR('',#865,10.);
#217=VECTOR('',#866,10.);
#218=VECTOR('',#871,10.);
#219=VECTOR('',#874,10.);
#220=VECTOR('',#875,10.);
#221=VECTOR('',#880,10.);
#222=VECTOR('',#883,10.);
#223=VECTOR('',#884,10.);
#224=VECTOR('',#891,2.3);
#225=VECTOR('',#896,10.);
#226=VECTOR('',#897,10.);
#227=VECTOR('',#902,10.);
#228=VECTOR('',#905,10.);
#229=VECTOR('',#906,10.);
#230=CIRCLE('',#658,5.);
#231=CIRCLE('',#659,5.);
#232=CIRCLE('',#661,1.);
#233=CIRCLE('',#662,1.);
#234=CIRCLE('',#665,1.);
#235=CIRCLE('',#666,1.);
#236=CIRCLE('',#668,7.);
#237=CIRCLE('',#669,7.);
#238=CIRCLE('',#671,3.);
#239=CIRCLE('',#672,3.);
#240=CIRCLE('',#674,6.99999999999999);
#241=CIRCLE('',#675,6.99999999999999);
#242=CIRCLE('',#676,2.3);
#243=CIRCLE('',#677,2.3);
#244=CIRCLE('',#678,2.3);
#245=CIRCLE('',#679,1.5);
#246=CIRCLE('',#680,1.50000000000001);
#247=CIRCLE('',#681,1.5);
#248=CIRCLE('',#682,1.5);
#249=CIRCLE('',#683,2.3);
#250=CIRCLE('',#685,3.);
#251=CIRCLE('',#687,3.);
#252=CIRCLE('',#689,7.);
#253=CIRCLE('',#690,7.);
#254=CIRCLE('',#697,2.3);
#255=CIRCLE('',#699,2.3);
#256=CIRCLE('',#701,2.3);
#257=CIRCLE('',#704,1.5);
#258=CIRCLE('',#707,1.5);
#259=CIRCLE('',#710,1.50000000000001);
#260=CIRCLE('',#713,1.5);
#261=CIRCLE('',#715,2.3);
#262=CIRCLE('',#718,6.99999999999999);
#263=CIRCLE('',#721,6.99999999999999);
#264=VERTEX_POINT('',#915);
#265=VERTEX_POINT('',#917);
#266=VERTEX_POINT('',#921);
#267=VERTEX_POINT('',#922);
#268=VERTEX_POINT('',#924);
#269=VERTEX_POINT('',#926);
#270=VERTEX_POINT('',#930);
#271=VERTEX_POINT('',#932);
#272=VERTEX_POINT('',#936);
#273=VERTEX_POINT('',#938);
#274=VERTEX_POINT('',#942);
#275=VERTEX_POINT('',#944);
#276=VERTEX_POINT('',#946);
#277=VERTEX_POINT('',#948);
#278=VERTEX_POINT('',#952);
#279=VERTEX_POINT('',#953);
#280=VERTEX_POINT('',#955);
#281=VERTEX_POINT('',#957);
#282=VERTEX_POINT('',#961);
#283=VERTEX_POINT('',#963);
#284=VERTEX_POINT('',#965);
#285=VERTEX_POINT('',#967);
#286=VERTEX_POINT('',#970);
#287=VERTEX_POINT('',#972);
#288=VERTEX_POINT('',#974);
#289=VERTEX_POINT('',#976);
#290=VERTEX_POINT('',#977);
#291=VERTEX_POINT('',#979);
#292=VERTEX_POINT('',#981);
#293=VERTEX_POINT('',#983);
#294=VERTEX_POINT('',#985);
#295=VERTEX_POINT('',#987);
#296=VERTEX_POINT('',#989);
#297=VERTEX_POINT('',#992);
#298=VERTEX_POINT('',#995);
#299=VERTEX_POINT('',#997);
#300=VERTEX_POINT('',#999);
#301=VERTEX_POINT('',#1001);
#302=VERTEX_POINT('',#1004);
#303=VERTEX_POINT('',#1008);
#304=VERTEX_POINT('',#1009);
#305=VERTEX_POINT('',#1014);
#306=VERTEX_POINT('',#1016);
#307=VERTEX_POINT('',#1018);
#308=VERTEX_POINT('',#1028);
#309=VERTEX_POINT('',#1034);
#310=VERTEX_POINT('',#1038);
#311=VERTEX_POINT('',#1042);
#312=VERTEX_POINT('',#1046);
#313=VERTEX_POINT('',#1047);
#314=VERTEX_POINT('',#1052);
#315=VERTEX_POINT('',#1056);
#316=VERTEX_POINT('',#1060);
#317=VERTEX_POINT('',#1064);
#318=VERTEX_POINT('',#1068);
#319=VERTEX_POINT('',#1072);
#320=VERTEX_POINT('',#1078);
#321=VERTEX_POINT('',#1082);
#322=VERTEX_POINT('',#1086);
#323=VERTEX_POINT('',#1090);
#324=EDGE_CURVE('',#264,#264,#230,.T.);
#325=EDGE_CURVE('',#264,#265,#118,.T.);
#326=EDGE_CURVE('',#265,#265,#231,.T.);
#327=EDGE_CURVE('',#266,#267,#232,.T.);
#328=EDGE_CURVE('',#267,#268,#119,.T.);
#329=EDGE_CURVE('',#268,#269,#233,.T.);
#330=EDGE_CURVE('',#269,#266,#120,.T.);
#331=EDGE_CURVE('',#267,#270,#121,.T.);
#332=EDGE_CURVE('',#271,#270,#122,.T.);
#333=EDGE_CURVE('',#268,#271,#123,.T.);
#334=EDGE_CURVE('',#270,#272,#234,.T.);
#335=EDGE_CURVE('',#272,#273,#124,.T.);
#336=EDGE_CURVE('',#273,#271,#235,.T.);
#337=EDGE_CURVE('',#272,#274,#125,.T.);
#338=EDGE_CURVE('',#275,#274,#236,.T.);
#339=EDGE_CURVE('',#276,#275,#126,.T.);
#340=EDGE_CURVE('',#277,#276,#237,.T.);
#341=EDGE_CURVE('',#273,#277,#127,.T.);
#342=EDGE_CURVE('',#278,#279,#238,.T.);
#343=EDGE_CURVE('',#279,#280,#128,.T.);
#344=EDGE_CURVE('',#280,#281,#239,.T.);
#345=EDGE_CURVE('',#281,#278,#129,.T.);
#346=EDGE_CURVE('',#279,#282,#130,.T.);
#347=EDGE_CURVE('',#282,#283,#240,.T.);
#348=EDGE_CURVE('',#283,#284,#131,.T.);
#349=EDGE_CURVE('',#284,#285,#241,.T.);
#350=EDGE_CURVE('',#285,#280,#132,.T.);
#351=EDGE_CURVE('',#286,#286,#242,.T.);
#352=EDGE_CURVE('',#287,#287,#243,.T.);
#353=EDGE_CURVE('',#288,#288,#244,.T.);
#354=EDGE_CURVE('',#289,#290,#245,.T.);
#355=EDGE_CURVE('',#290,#291,#133,.T.);
#356=EDGE_CURVE('',#291,#292,#246,.T.);
#357=EDGE_CURVE('',#292,#293,#134,.T.);
#358=EDGE_CURVE('',#293,#294,#247,.T.);
#359=EDGE_CURVE('',#294,#295,#135,.T.);
#360=EDGE_CURVE('',#295,#296,#248,.T.);
#361=EDGE_CURVE('',#296,#289,#136,.T.);
#362=EDGE_CURVE('',#297,#297,#249,.T.);
#363=EDGE_CURVE('',#298,#278,#137,.T.);
#364=EDGE_CURVE('',#298,#299,#138,.T.);
#365=EDGE_CURVE('',#300,#299,#250,.T.);
#366=EDGE_CURVE('',#300,#301,#139,.T.);
#367=EDGE_CURVE('',#274,#301,#140,.T.);
#368=EDGE_CURVE('',#266,#302,#141,.T.);
#369=EDGE_CURVE('',#302,#282,#142,.T.);
#370=EDGE_CURVE('',#303,#304,#251,.T.);
#371=EDGE_CURVE('',#304,#300,#143,.T.);
#372=EDGE_CURVE('',#299,#303,#144,.T.);
#373=EDGE_CURVE('',#304,#305,#145,.T.);
#374=EDGE_CURVE('',#306,#305,#252,.T.);
#375=EDGE_CURVE('',#307,#306,#146,.T.);
#376=EDGE_CURVE('',#301,#307,#253,.T.);
#377=EDGE_CURVE('',#307,#275,#147,.T.);
#378=EDGE_CURVE('',#276,#306,#148,.T.);
#379=EDGE_CURVE('',#305,#277,#149,.T.);
#380=EDGE_CURVE('',#308,#298,#150,.T.);
#381=EDGE_CURVE('',#308,#303,#151,.T.);
#382=EDGE_CURVE('',#281,#308,#152,.T.);
#383=EDGE_CURVE('',#286,#309,#153,.T.);
#384=EDGE_CURVE('',#309,#309,#254,.T.);
#385=EDGE_CURVE('',#287,#310,#154,.T.);
#386=EDGE_CURVE('',#310,#310,#255,.T.);
#387=EDGE_CURVE('',#288,#311,#155,.T.);
#388=EDGE_CURVE('',#311,#311,#256,.T.);
#389=EDGE_CURVE('',#312,#313,#156,.T.);
#390=EDGE_CURVE('',#313,#289,#157,.T.);
#391=EDGE_CURVE('',#312,#296,#158,.T.);
#392=EDGE_CURVE('',#314,#312,#257,.T.);
#393=EDGE_CURVE('',#314,#295,#159,.T.);
#394=EDGE_CURVE('',#315,#314,#160,.T.);
#395=EDGE_CURVE('',#315,#294,#161,.T.);
#396=EDGE_CURVE('',#316,#315,#258,.T.);
#397=EDGE_CURVE('',#316,#293,#162,.T.);
#398=EDGE_CURVE('',#317,#316,#163,.T.);
#399=EDGE_CURVE('',#317,#292,#164,.T.);
#400=EDGE_CURVE('',#318,#317,#259,.T.);
#401=EDGE_CURVE('',#318,#291,#165,.T.);
#402=EDGE_CURVE('',#319,#318,#166,.T.);
#403=EDGE_CURVE('',#319,#290,#167,.T.);
#404=EDGE_CURVE('',#313,#319,#260,.T.);
#405=EDGE_CURVE('',#297,#320,#168,.T.);
#406=EDGE_CURVE('',#320,#320,#261,.T.);
#407=EDGE_CURVE('',#321,#285,#169,.T.);
#408=EDGE_CURVE('',#321,#269,#170,.T.);
#409=EDGE_CURVE('',#322,#321,#262,.T.);
#410=EDGE_CURVE('',#322,#284,#171,.T.);
#411=EDGE_CURVE('',#323,#322,#172,.T.);
#412=EDGE_CURVE('',#323,#283,#173,.T.);
#413=EDGE_CURVE('',#302,#323,#263,.T.);
#414=ORIENTED_EDGE('',*,*,#324,.F.);
#415=ORIENTED_EDGE('',*,*,#325,.T.);
#416=ORIENTED_EDGE('',*,*,#326,.F.);
#417=ORIENTED_EDGE('',*,*,#325,.F.);
#418=ORIENTED_EDGE('',*,*,#327,.T.);
#419=ORIENTED_EDGE('',*,*,#328,.T.);
#420=ORIENTED_EDGE('',*,*,#329,.T.);
#421=ORIENTED_EDGE('',*,*,#330,.T.);
#422=ORIENTED_EDGE('',*,*,#328,.F.);
#423=ORIENTED_EDGE('',*,*,#331,.T.);
#424=ORIENTED_EDGE('',*,*,#332,.F.);
#425=ORIENTED_EDGE('',*,*,#333,.F.);
#426=ORIENTED_EDGE('',*,*,#334,.T.);
#427=ORIENTED_EDGE('',*,*,#335,.T.);
#428=ORIENTED_EDGE('',*,*,#336,.T.);
#429=ORIENTED_EDGE('',*,*,#332,.T.);
#430=ORIENTED_EDGE('',*,*,#335,.F.);
#431=ORIENTED_EDGE('',*,*,#337,.T.);
#432=ORIENTED_EDGE('',*,*,#338,.F.);
#433=ORIENTED_EDGE('',*,*,#339,.F.);
#434=ORIENTED_EDGE('',*,*,#340,.F.);
#435=ORIENTED_EDGE('',*,*,#341,.F.);
#436=ORIENTED_EDGE('',*,*,#326,.T.);
#437=ORIENTED_EDGE('',*,*,#342,.T.);
#438=ORIENTED_EDGE('',*,*,#343,.T.);
#439=ORIENTED_EDGE('',*,*,#344,.T.);
#440=ORIENTED_EDGE('',*,*,#345,.T.);
#441=ORIENTED_EDGE('',*,*,#343,.F.);
#442=ORIENTED_EDGE('',*,*,#346,.T.);
#443=ORIENTED_EDGE('',*,*,#347,.T.);
#444=ORIENTED_EDGE('',*,*,#348,.T.);
#445=ORIENTED_EDGE('',*,*,#349,.T.);
#446=ORIENTED_EDGE('',*,*,#350,.T.);
#447=ORIENTED_EDGE('',*,*,#351,.T.);
#448=ORIENTED_EDGE('',*,*,#352,.T.);
#449=ORIENTED_EDGE('',*,*,#353,.T.);
#450=ORIENTED_EDGE('',*,*,#354,.T.);
#451=ORIENTED_EDGE('',*,*,#355,.T.);
#452=ORIENTED_EDGE('',*,*,#356,.T.);
#453=ORIENTED_EDGE('',*,*,#357,.T.);
#454=ORIENTED_EDGE('',*,*,#358,.T.);
#455=ORIENTED_EDGE('',*,*,#359,.T.);
#456=ORIENTED_EDGE('',*,*,#360,.T.);
#457=ORIENTED_EDGE('',*,*,#361,.T.);
#458=ORIENTED_EDGE('',*,*,#362,.T.);
#459=ORIENTED_EDGE('',*,*,#342,.F.);
#460=ORIENTED_EDGE('',*,*,#363,.F.);
#461=ORIENTED_EDGE('',*,*,#364,.T.);
#462=ORIENTED_EDGE('',*,*,#365,.F.);
#463=ORIENTED_EDGE('',*,*,#366,.T.);
#464=ORIENTED_EDGE('',*,*,#367,.F.);
#465=ORIENTED_EDGE('',*,*,#337,.F.);
#466=ORIENTED_EDGE('',*,*,#334,.F.);
#467=ORIENTED_EDGE('',*,*,#331,.F.);
#468=ORIENTED_EDGE('',*,*,#327,.F.);
#469=ORIENTED_EDGE('',*,*,#368,.T.);
#470=ORIENTED_EDGE('',*,*,#369,.T.);
#471=ORIENTED_EDGE('',*,*,#346,.F.);
#472=ORIENTED_EDGE('',*,*,#370,.T.);
#473=ORIENTED_EDGE('',*,*,#371,.T.);
#474=ORIENTED_EDGE('',*,*,#365,.T.);
#475=ORIENTED_EDGE('',*,*,#372,.T.);
#476=ORIENTED_EDGE('',*,*,#371,.F.);
#477=ORIENTED_EDGE('',*,*,#373,.T.);
#478=ORIENTED_EDGE('',*,*,#374,.F.);
#479=ORIENTED_EDGE('',*,*,#375,.F.);
#480=ORIENTED_EDGE('',*,*,#376,.F.);
#481=ORIENTED_EDGE('',*,*,#366,.F.);
#482=ORIENTED_EDGE('',*,*,#324,.T.);
#483=ORIENTED_EDGE('',*,*,#376,.T.);
#484=ORIENTED_EDGE('',*,*,#377,.T.);
#485=ORIENTED_EDGE('',*,*,#338,.T.);
#486=ORIENTED_EDGE('',*,*,#367,.T.);
#487=ORIENTED_EDGE('',*,*,#377,.F.);
#488=ORIENTED_EDGE('',*,*,#375,.T.);
#489=ORIENTED_EDGE('',*,*,#378,.F.);
#490=ORIENTED_EDGE('',*,*,#339,.T.);
#491=ORIENTED_EDGE('',*,*,#374,.T.);
#492=ORIENTED_EDGE('',*,*,#379,.T.);
#493=ORIENTED_EDGE('',*,*,#340,.T.);
#494=ORIENTED_EDGE('',*,*,#378,.T.);
#495=ORIENTED_EDGE('',*,*,#372,.F.);
#496=ORIENTED_EDGE('',*,*,#364,.F.);
#497=ORIENTED_EDGE('',*,*,#380,.F.);
#498=ORIENTED_EDGE('',*,*,#381,.T.);
#499=ORIENTED_EDGE('',*,*,#345,.F.);
#500=ORIENTED_EDGE('',*,*,#382,.T.);
#501=ORIENTED_EDGE('',*,*,#380,.T.);
#502=ORIENTED_EDGE('',*,*,#363,.T.);
#503=ORIENTED_EDGE('',*,*,#351,.F.);
#504=ORIENTED_EDGE('',*,*,#383,.T.);
#505=ORIENTED_EDGE('',*,*,#384,.T.);
#506=ORIENTED_EDGE('',*,*,#383,.F.);
#507=ORIENTED_EDGE('',*,*,#352,.F.);
#508=ORIENTED_EDGE('',*,*,#385,.T.);
#509=ORIENTED_EDGE('',*,*,#386,.T.);
#510=ORIENTED_EDGE('',*,*,#385,.F.);
#511=ORIENTED_EDGE('',*,*,#353,.F.);
#512=ORIENTED_EDGE('',*,*,#387,.T.);
#513=ORIENTED_EDGE('',*,*,#388,.T.);
#514=ORIENTED_EDGE('',*,*,#387,.F.);
#515=ORIENTED_EDGE('',*,*,#389,.T.);
#516=ORIENTED_EDGE('',*,*,#390,.T.);
#517=ORIENTED_EDGE('',*,*,#361,.F.);
#518=ORIENTED_EDGE('',*,*,#391,.F.);
#519=ORIENTED_EDGE('',*,*,#392,.T.);
#520=ORIENTED_EDGE('',*,*,#391,.T.);
#521=ORIENTED_EDGE('',*,*,#360,.F.);
#522=ORIENTED_EDGE('',*,*,#393,.F.);
#523=ORIENTED_EDGE('',*,*,#394,.T.);
#524=ORIENTED_EDGE('',*,*,#393,.T.);
#525=ORIENTED_EDGE('',*,*,#359,.F.);
#526=ORIENTED_EDGE('',*,*,#395,.F.);
#527=ORIENTED_EDGE('',*,*,#396,.T.);
#528=ORIENTED_EDGE('',*,*,#395,.T.);
#529=ORIENTED_EDGE('',*,*,#358,.F.);
#530=ORIENTED_EDGE('',*,*,#397,.F.);
#531=ORIENTED_EDGE('',*,*,#398,.T.);
#532=ORIENTED_EDGE('',*,*,#397,.T.);
#533=ORIENTED_EDGE('',*,*,#357,.F.);
#534=ORIENTED_EDGE('',*,*,#399,.F.);
#535=ORIENTED_EDGE('',*,*,#400,.T.);
#536=ORIENTED_EDGE('',*,*,#399,.T.);
#537=ORIENTED_EDGE('',*,*,#356,.F.);
#538=ORIENTED_EDGE('',*,*,#401,.F.);
#539=ORIENTED_EDGE('',*,*,#402,.T.);
#540=ORIENTED_EDGE('',*,*,#401,.T.);
#541=ORIENTED_EDGE('',*,*,#355,.F.);
#542=ORIENTED_EDGE('',*,*,#403,.F.);
#543=ORIENTED_EDGE('',*,*,#404,.T.);
#544=ORIENTED_EDGE('',*,*,#403,.T.);
#545=ORIENTED_EDGE('',*,*,#354,.F.);
#546=ORIENTED_EDGE('',*,*,#390,.F.);
#547=ORIENTED_EDGE('',*,*,#362,.F.);
#548=ORIENTED_EDGE('',*,*,#405,.T.);
#549=ORIENTED_EDGE('',*,*,#406,.T.);
#550=ORIENTED_EDGE('',*,*,#405,.F.);
#551=ORIENTED_EDGE('',*,*,#344,.F.);
#552=ORIENTED_EDGE('',*,*,#350,.F.);
#553=ORIENTED_EDGE('',*,*,#407,.F.);
#554=ORIENTED_EDGE('',*,*,#408,.T.);
#555=ORIENTED_EDGE('',*,*,#329,.F.);
#556=ORIENTED_EDGE('',*,*,#333,.T.);
#557=ORIENTED_EDGE('',*,*,#336,.F.);
#558=ORIENTED_EDGE('',*,*,#341,.T.);
#559=ORIENTED_EDGE('',*,*,#379,.F.);
#560=ORIENTED_EDGE('',*,*,#373,.F.);
#561=ORIENTED_EDGE('',*,*,#370,.F.);
#562=ORIENTED_EDGE('',*,*,#381,.F.);
#563=ORIENTED_EDGE('',*,*,#382,.F.);
#564=ORIENTED_EDGE('',*,*,#409,.T.);
#565=ORIENTED_EDGE('',*,*,#407,.T.);
#566=ORIENTED_EDGE('',*,*,#349,.F.);
#567=ORIENTED_EDGE('',*,*,#410,.F.);
#568=ORIENTED_EDGE('',*,*,#411,.T.);
#569=ORIENTED_EDGE('',*,*,#410,.T.);
#570=ORIENTED_EDGE('',*,*,#348,.F.);
#571=ORIENTED_EDGE('',*,*,#412,.F.);
#572=ORIENTED_EDGE('',*,*,#413,.T.);
#573=ORIENTED_EDGE('',*,*,#412,.T.);
#574=ORIENTED_EDGE('',*,*,#347,.F.);
#575=ORIENTED_EDGE('',*,*,#369,.F.);
#576=ORIENTED_EDGE('',*,*,#330,.F.);
#577=ORIENTED_EDGE('',*,*,#408,.F.);
#578=ORIENTED_EDGE('',*,*,#409,.F.);
#579=ORIENTED_EDGE('',*,*,#411,.F.);
#580=ORIENTED_EDGE('',*,*,#413,.F.);
#581=ORIENTED_EDGE('',*,*,#368,.F.);
#582=ORIENTED_EDGE('',*,*,#406,.F.);
#583=ORIENTED_EDGE('',*,*,#404,.F.);
#584=ORIENTED_EDGE('',*,*,#389,.F.);
#585=ORIENTED_EDGE('',*,*,#392,.F.);
#586=ORIENTED_EDGE('',*,*,#394,.F.);
#587=ORIENTED_EDGE('',*,*,#396,.F.);
#588=ORIENTED_EDGE('',*,*,#398,.F.);
#589=ORIENTED_EDGE('',*,*,#400,.F.);
#590=ORIENTED_EDGE('',*,*,#402,.F.);
#591=ORIENTED_EDGE('',*,*,#388,.F.);
#592=ORIENTED_EDGE('',*,*,#386,.F.);
#593=ORIENTED_EDGE('',*,*,#384,.F.);
#594=CYLINDRICAL_SURFACE('',#657,5.);
#595=CYLINDRICAL_SURFACE('',#660,1.);
#596=CYLINDRICAL_SURFACE('',#664,1.);
#597=CYLINDRICAL_SURFACE('',#670,3.);
#598=CYLINDRICAL_SURFACE('',#686,3.);
#599=CYLINDRICAL_SURFACE('',#691,7.);
#600=CYLINDRICAL_SURFACE('',#693,7.);
#601=CYLINDRICAL_SURFACE('',#696,2.3);
#602=CYLINDRICAL_SURFACE('',#698,2.3);
#603=CYLINDRICAL_SURFACE('',#700,2.3);
#604=CYLINDRICAL_SURFACE('',#703,1.5);
#605=CYLINDRICAL_SURFACE('',#706,1.5);
#606=CYLINDRICAL_SURFACE('',#709,1.50000000000001);
#607=CYLINDRICAL_SURFACE('',#712,1.5);
#608=CYLINDRICAL_SURFACE('',#714,2.3);
#609=CYLINDRICAL_SURFACE('',#717,6.99999999999999);
#610=CYLINDRICAL_SURFACE('',#720,6.99999999999999);
#611=ADVANCED_FACE('',(#42),#594,.F.);
#612=ADVANCED_FACE('',(#43),#595,.F.);
#613=ADVANCED_FACE('',(#44),#27,.T.);
#614=ADVANCED_FACE('',(#45),#596,.F.);
#615=ADVANCED_FACE('',(#46,#15),#28,.T.);
#616=ADVANCED_FACE('',(#47),#597,.T.);
#617=ADVANCED_FACE('',(#48,#16,#17,#18,#19,#20),#29,.T.);
#618=ADVANCED_FACE('',(#49),#30,.T.);
#619=ADVANCED_FACE('',(#50),#598,.T.);
#620=ADVANCED_FACE('',(#51,#21),#31,.T.);
#621=ADVANCED_FACE('',(#52),#599,.T.);
#622=ADVANCED_FACE('',(#53),#32,.T.);
#623=ADVANCED_FACE('',(#54),#600,.T.);
#624=ADVANCED_FACE('',(#55),#33,.T.);
#625=ADVANCED_FACE('',(#56),#34,.T.);
#626=ADVANCED_FACE('',(#57),#601,.F.);
#627=ADVANCED_FACE('',(#58),#602,.F.);
#628=ADVANCED_FACE('',(#59),#603,.F.);
#629=ADVANCED_FACE('',(#60),#35,.T.);
#630=ADVANCED_FACE('',(#61),#604,.F.);
#631=ADVANCED_FACE('',(#62),#36,.T.);
#632=ADVANCED_FACE('',(#63),#605,.F.);
#633=ADVANCED_FACE('',(#64),#37,.T.);
#634=ADVANCED_FACE('',(#65),#606,.F.);
#635=ADVANCED_FACE('',(#66),#38,.T.);
#636=ADVANCED_FACE('',(#67),#607,.F.);
#637=ADVANCED_FACE('',(#68),#608,.F.);
#638=ADVANCED_FACE('',(#69),#39,.T.);
#639=ADVANCED_FACE('',(#70),#609,.T.);
#640=ADVANCED_FACE('',(#71),#40,.T.);
#641=ADVANCED_FACE('',(#72),#610,.T.);
#642=ADVANCED_FACE('',(#73,#22,#23,#24,#25,#26),#41,.F.);
#643=CLOSED_SHELL('',(#611,#612,#613,#614,#615,#616,#617,#618,#619,#620,
#621,#622,#623,#624,#625,#626,#627,#628,#629,#630,#631,#632,#633,#634,#635,
#636,#637,#638,#639,#640,#641,#642));
#644=DERIVED_UNIT_ELEMENT(#646,1.);
#645=DERIVED_UNIT_ELEMENT(#1101,-3.);
#646=(
MASS_UNIT()
NAMED_UNIT(*)
SI_UNIT(.KILO.,.GRAM.)
);
#647=DERIVED_UNIT((#644,#645));
#648=MEASURE_REPRESENTATION_ITEM('density measure',
POSITIVE_RATIO_MEASURE(7850.),#647);
#649=PROPERTY_DEFINITION_REPRESENTATION(#654,#651);
#650=PROPERTY_DEFINITION_REPRESENTATION(#655,#652);
#651=REPRESENTATION('material name',(#653),#1098);
#652=REPRESENTATION('density',(#648),#1098);
#653=DESCRIPTIVE_REPRESENTATION_ITEM('Steel','Steel');
#654=PROPERTY_DEFINITION('material property','material name',#1108);
#655=PROPERTY_DEFINITION('material property','density of part',#1108);
#656=AXIS2_PLACEMENT_3D('',#913,#723,#724);
#657=AXIS2_PLACEMENT_3D('',#914,#725,#726);
#658=AXIS2_PLACEMENT_3D('',#916,#727,#728);
#659=AXIS2_PLACEMENT_3D('',#919,#730,#731);
#660=AXIS2_PLACEMENT_3D('',#920,#732,#733);
#661=AXIS2_PLACEMENT_3D('',#923,#734,#735);
#662=AXIS2_PLACEMENT_3D('',#927,#737,#738);
#663=AXIS2_PLACEMENT_3D('',#929,#740,#741);
#664=AXIS2_PLACEMENT_3D('',#935,#745,#746);
#665=AXIS2_PLACEMENT_3D('',#937,#747,#748);
#666=AXIS2_PLACEMENT_3D('',#940,#750,#751);
#667=AXIS2_PLACEMENT_3D('',#941,#752,#753);
#668=AXIS2_PLACEMENT_3D('',#945,#755,#756);
#669=AXIS2_PLACEMENT_3D('',#949,#758,#759);
#670=AXIS2_PLACEMENT_3D('',#951,#761,#762);
#671=AXIS2_PLACEMENT_3D('',#954,#763,#764);
#672=AXIS2_PLACEMENT_3D('',#958,#766,#767);
#673=AXIS2_PLACEMENT_3D('',#960,#769,#770);
#674=AXIS2_PLACEMENT_3D('',#964,#772,#773);
#675=AXIS2_PLACEMENT_3D('',#968,#775,#776);
#676=AXIS2_PLACEMENT_3D('',#971,#778,#779);
#677=AXIS2_PLACEMENT_3D('',#973,#780,#781);
#678=AXIS2_PLACEMENT_3D('',#975,#782,#783);
#679=AXIS2_PLACEMENT_3D('',#978,#784,#785);
#680=AXIS2_PLACEMENT_3D('',#982,#787,#788);
#681=AXIS2_PLACEMENT_3D('',#986,#790,#791);
#682=AXIS2_PLACEMENT_3D('',#990,#793,#794);
#683=AXIS2_PLACEMENT_3D('',#993,#796,#797);
#684=AXIS2_PLACEMENT_3D('',#994,#798,#799);
#685=AXIS2_PLACEMENT_3D('',#1000,#802,#803);
#686=AXIS2_PLACEMENT_3D('',#1007,#808,#809);
#687=AXIS2_PLACEMENT_3D('',#1010,#810,#811);
#688=AXIS2_PLACEMENT_3D('',#1013,#814,#815);
#689=AXIS2_PLACEMENT_3D('',#1017,#817,#818);
#690=AXIS2_PLACEMENT_3D('',#1020,#820,#821);
#691=AXIS2_PLACEMENT_3D('',#1021,#822,#823);
#692=AXIS2_PLACEMENT_3D('',#1023,#825,#826);
#693=AXIS2_PLACEMENT_3D('',#1025,#828,#829);
#694=AXIS2_PLACEMENT_3D('',#1027,#831,#832);
#695=AXIS2_PLACEMENT_3D('',#1031,#835,#836);
#696=AXIS2_PLACEMENT_3D('',#1033,#838,#839);
#697=AXIS2_PLACEMENT_3D('',#1036,#841,#842);
#698=AXIS2_PLACEMENT_3D('',#1037,#843,#844);
#699=AXIS2_PLACEMENT_3D('',#1040,#846,#847);
#700=AXIS2_PLACEMENT_3D('',#1041,#848,#849);
#701=AXIS2_PLACEMENT_3D('',#1044,#851,#852);
#702=AXIS2_PLACEMENT_3D('',#1045,#853,#854);
#703=AXIS2_PLACEMENT_3D('',#1051,#858,#859);
#704=AXIS2_PLACEMENT_3D('',#1053,#860,#861);
#705=AXIS2_PLACEMENT_3D('',#1055,#863,#864);
#706=AXIS2_PLACEMENT_3D('',#1059,#867,#868);
#707=AXIS2_PLACEMENT_3D('',#1061,#869,#870);
#708=AXIS2_PLACEMENT_3D('',#1063,#872,#873);
#709=AXIS2_PLACEMENT_3D('',#1067,#876,#877);
#710=AXIS2_PLACEMENT_3D('',#1069,#878,#879);
#711=AXIS2_PLACEMENT_3D('',#1071,#881,#882);
#712=AXIS2_PLACEMENT_3D('',#1075,#885,#886);
#713=AXIS2_PLACEMENT_3D('',#1076,#887,#888);
#714=AXIS2_PLACEMENT_3D('',#1077,#889,#890);
#715=AXIS2_PLACEMENT_3D('',#1080,#892,#893);
#716=AXIS2_PLACEMENT_3D('',#1081,#894,#895);
#717=AXIS2_PLACEMENT_3D('',#1085,#898,#899);
#718=AXIS2_PLACEMENT_3D('',#1087,#900,#901);
#719=AXIS2_PLACEMENT_3D('',#1089,#903,#904);
#720=AXIS2_PLACEMENT_3D('',#1093,#907,#908);
#721=AXIS2_PLACEMENT_3D('',#1094,#909,#910);
#722=AXIS2_PLACEMENT_3D('',#1095,#911,#912);
#723=DIRECTION('axis',(0.,0.,1.));
#724=DIRECTION('refdir',(1.,0.,0.));
#725=DIRECTION('center_axis',(0.,1.,0.));
#726=DIRECTION('ref_axis',(1.,0.,0.));
#727=DIRECTION('center_axis',(0.,1.,0.));
#728=DIRECTION('ref_axis',(1.,0.,0.));
#729=DIRECTION('',(0.,1.,0.));
#730=DIRECTION('center_axis',(0.,-1.,0.));
#731=DIRECTION('ref_axis',(1.,0.,0.));
#732=DIRECTION('center_axis',(-1.,0.,0.));
#733=DIRECTION('ref_axis',(0.,0.707106781186546,0.707106781186549));
#734=DIRECTION('center_axis',(1.,0.,0.));
#735=DIRECTION('ref_axis',(0.,0.707106781186546,0.707106781186549));
#736=DIRECTION('',(-1.,0.,0.));
#737=DIRECTION('center_axis',(-1.,0.,0.));
#738=DIRECTION('ref_axis',(0.,0.707106781186546,0.707106781186549));
#739=DIRECTION('',(1.,0.,0.));
#740=DIRECTION('center_axis',(0.,0.,-1.));
#741=DIRECTION('ref_axis',(1.,0.,0.));
#742=DIRECTION('',(0.,-1.,0.));
#743=DIRECTION('',(1.,0.,0.));
#744=DIRECTION('',(0.,-1.,0.));
#745=DIRECTION('center_axis',(-1.,0.,0.));
#746=DIRECTION('ref_axis',(0.,-0.707106781186548,0.707106781186548));
#747=DIRECTION('center_axis',(1.,0.,0.));
#748=DIRECTION('ref_axis',(0.,-0.707106781186548,0.707106781186548));
#749=DIRECTION('',(-1.,0.,0.));
#750=DIRECTION('center_axis',(-1.,0.,0.));
#751=DIRECTION('ref_axis',(0.,-0.707106781186548,0.707106781186548));
#752=DIRECTION('center_axis',(0.,1.,0.));
#753=DIRECTION('ref_axis',(1.,0.,0.));
#754=DIRECTION('',(0.,0.,-1.));
#755=DIRECTION('center_axis',(0.,-1.,0.));
#756=DIRECTION('ref_axis',(0.707106781186547,0.,-0.707106781186548));
#757=DIRECTION('',(1.,0.,0.));
#758=DIRECTION('center_axis',(0.,-1.,0.));
#759=DIRECTION('ref_axis',(-0.707106781186547,0.,-0.707106781186548));
#760=DIRECTION('',(0.,0.,-1.));
#761=DIRECTION('center_axis',(-1.,0.,0.));
#762=DIRECTION('ref_axis',(0.,0.333333333333334,0.942809041582063));
#763=DIRECTION('center_axis',(-1.,0.,0.));
#764=DIRECTION('ref_axis',(0.,0.333333333333334,0.942809041582063));
#765=DIRECTION('',(-1.,0.,0.));
#766=DIRECTION('center_axis',(1.,0.,0.));
#767=DIRECTION('ref_axis',(0.,0.333333333333334,0.942809041582063));
#768=DIRECTION('',(1.,0.,0.));
#769=DIRECTION('center_axis',(0.,1.,0.));
#770=DIRECTION('ref_axis',(1.,0.,0.));
#771=DIRECTION('',(0.,0.,-1.));
#772=DIRECTION('center_axis',(0.,1.,0.));
#773=DIRECTION('ref_axis',(1.,0.,1.90323947078599E-15));
#774=DIRECTION('',(-1.,0.,0.));
#775=DIRECTION('center_axis',(0.,1.,0.));
#776=DIRECTION('ref_axis',(1.42742960308949E-15,0.,-1.));
#777=DIRECTION('',(0.,0.,1.));
#778=DIRECTION('center_axis',(0.,-1.,0.));
#779=DIRECTION('ref_axis',(1.,0.,0.));
#780=DIRECTION('center_axis',(0.,-1.,0.));
#781=DIRECTION('ref_axis',(1.,0.,0.));
#782=DIRECTION('center_axis',(0.,-1.,0.));
#783=DIRECTION('ref_axis',(1.,0.,0.));
#784=DIRECTION('center_axis',(0.,-1.,0.));
#785=DIRECTION('ref_axis',(0.599999999999993,0.,0.800000000000005));
#786=DIRECTION('',(-1.,0.,0.));
#787=DIRECTION('center_axis',(0.,-1.,0.));
#788=DIRECTION('ref_axis',(-1.,0.,0.));
#789=DIRECTION('',(-1.1686558153949E-16,0.,-1.));
#790=DIRECTION('center_axis',(0.,-1.,0.));
#791=DIRECTION('ref_axis',(-0.599999999999998,0.,-0.800000000000002));
#792=DIRECTION('',(1.,0.,-4.48574959444508E-16));
#793=DIRECTION('center_axis',(0.,-1.,0.));
#794=DIRECTION('ref_axis',(1.,0.,0.));
#795=DIRECTION('',(0.,0.,1.));
#796=DIRECTION('center_axis',(0.,-1.,0.));
#797=DIRECTION('ref_axis',(1.,0.,0.));
#798=DIRECTION('center_axis',(1.,0.,0.));
#799=DIRECTION('ref_axis',(0.,0.,-1.));
#800=DIRECTION('',(0.,0.,-1.));
#801=DIRECTION('',(0.,-1.,0.));
#802=DIRECTION('center_axis',(-1.,0.,0.));
#803=DIRECTION('ref_axis',(0.,-0.707106781186549,0.707106781186546));
#804=DIRECTION('',(0.,0.,-1.));
#805=DIRECTION('',(0.,-1.,0.));
#806=DIRECTION('',(0.,0.,-1.));
#807=DIRECTION('',(0.,1.,0.));
#808=DIRECTION('center_axis',(-1.,0.,0.));
#809=DIRECTION('ref_axis',(0.,-0.707106781186549,0.707106781186546));
#810=DIRECTION('center_axis',(1.,0.,0.));
#811=DIRECTION('ref_axis',(0.,-0.707106781186549,0.707106781186546));
#812=DIRECTION('',(1.,0.,0.));
#813=DIRECTION('',(-1.,0.,0.));
#814=DIRECTION('center_axis',(0.,-1.,0.));
#815=DIRECTION('ref_axis',(0.,0.,-1.));
#816=DIRECTION('',(0.,0.,-1.));
#817=DIRECTION('center_axis',(0.,1.,0.));
#818=DIRECTION('ref_axis',(-0.707106781186547,0.,-0.707106781186548));
#819=DIRECTION('',(-1.,0.,0.));
#820=DIRECTION('center_axis',(0.,1.,0.));
#821=DIRECTION('ref_axis',(0.707106781186547,0.,-0.707106781186548));
#822=DIRECTION('center_axis',(0.,-1.,0.));
#823=DIRECTION('ref_axis',(0.707106781186547,0.,-0.707106781186548));
#824=DIRECTION('',(0.,1.,0.));
#825=DIRECTION('center_axis',(0.,0.,-1.));
#826=DIRECTION('ref_axis',(-1.,0.,0.));
#827=DIRECTION('',(0.,-1.,0.));
#828=DIRECTION('center_axis',(0.,1.,0.));
#829=DIRECTION('ref_axis',(-0.707106781186547,0.,-0.707106781186548));
#830=DIRECTION('',(0.,1.,0.));
#831=DIRECTION('center_axis',(0.,0.,1.));
#832=DIRECTION('ref_axis',(-1.,0.,0.));
#833=DIRECTION('',(1.,0.,0.));
#834=DIRECTION('',(0.,-1.,0.));
#835=DIRECTION('center_axis',(0.,1.,0.));
#836=DIRECTION('ref_axis',(1.,0.,0.));
#837=DIRECTION('',(0.,0.,1.));
#838=DIRECTION('center_axis',(0.,1.,0.));
#839=DIRECTION('ref_axis',(1.,0.,0.));
#840=DIRECTION('',(0.,-1.,0.));
#841=DIRECTION('center_axis',(0.,-1.,0.));
#842=DIRECTION('ref_axis',(1.,0.,0.));
#843=DIRECTION('center_axis',(0.,1.,0.));
#844=DIRECTION('ref_axis',(1.,0.,0.));
#845=DIRECTION('',(0.,-1.,0.));
#846=DIRECTION('center_axis',(0.,-1.,0.));
#847=DIRECTION('ref_axis',(1.,0.,0.));
#848=DIRECTION('center_axis',(0.,1.,0.));
#849=DIRECTION('ref_axis',(1.,0.,0.));
#850=DIRECTION('',(0.,-1.,0.));
#851=DIRECTION('center_axis',(0.,-1.,0.));
#852=DIRECTION('ref_axis',(1.,0.,0.));
#853=DIRECTION('center_axis',(-1.,0.,0.));
#854=DIRECTION('ref_axis',(0.,0.,1.));
#855=DIRECTION('',(0.,0.,1.));
#856=DIRECTION('',(0.,1.,0.));
#857=DIRECTION('',(0.,1.,0.));
#858=DIRECTION('center_axis',(0.,1.,0.));
#859=DIRECTION('ref_axis',(1.,0.,0.));
#860=DIRECTION('center_axis',(0.,-1.,0.));
#861=DIRECTION('ref_axis',(1.,0.,0.));
#862=DIRECTION('',(0.,1.,0.));
#863=DIRECTION('center_axis',(4.48574959444508E-16,0.,1.));
#864=DIRECTION('ref_axis',(1.,0.,-4.48574959444508E-16));
#865=DIRECTION('',(1.,0.,-4.48574959444508E-16));
#866=DIRECTION('',(0.,1.,0.));
#867=DIRECTION('center_axis',(0.,1.,0.));
#868=DIRECTION('ref_axis',(-0.599999999999998,0.,-0.800000000000002));
#869=DIRECTION('center_axis',(0.,-1.,0.));
#870=DIRECTION('ref_axis',(-0.599999999999998,0.,-0.800000000000002));
#871=DIRECTION('',(0.,1.,0.));
#872=DIRECTION('center_axis',(1.,0.,-1.1686558153949E-16));
#873=DIRECTION('ref_axis',(-1.1686558153949E-16,0.,-1.));
#874=DIRECTION('',(-1.1686558153949E-16,0.,-1.));
#875=DIRECTION('',(0.,1.,0.));
#876=DIRECTION('center_axis',(0.,1.,0.));
#877=DIRECTION('ref_axis',(-1.,0.,0.));
#878=DIRECTION('center_axis',(0.,-1.,0.));
#879=DIRECTION('ref_axis',(-1.,0.,0.));
#880=DIRECTION('',(0.,1.,0.));
#881=DIRECTION('center_axis',(0.,0.,-1.));
#882=DIRECTION('ref_axis',(-1.,0.,0.));
#883=DIRECTION('',(-1.,0.,0.));
#884=DIRECTION('',(0.,1.,0.));
#885=DIRECTION('center_axis',(0.,1.,0.));
#886=DIRECTION('ref_axis',(0.599999999999993,0.,0.800000000000005));
#887=DIRECTION('center_axis',(0.,-1.,0.));
#888=DIRECTION('ref_axis',(0.599999999999993,0.,0.800000000000005));
#889=DIRECTION('center_axis',(0.,1.,0.));
#890=DIRECTION('ref_axis',(1.,0.,0.));
#891=DIRECTION('',(0.,-1.,0.));
#892=DIRECTION('center_axis',(0.,-1.,0.));
#893=DIRECTION('ref_axis',(1.,0.,0.));
#894=DIRECTION('center_axis',(-1.,0.,0.));
#895=DIRECTION('ref_axis',(0.,0.,1.));
#896=DIRECTION('',(0.,1.,0.));
#897=DIRECTION('',(0.,0.,1.));
#898=DIRECTION('center_axis',(0.,1.,0.));
#899=DIRECTION('ref_axis',(1.42742960308949E-15,0.,-1.));
#900=DIRECTION('center_axis',(0.,1.,0.));
#901=DIRECTION('ref_axis',(1.42742960308949E-15,0.,-1.));
#902=DIRECTION('',(0.,1.,0.));
#903=DIRECTION('center_axis',(0.,0.,-1.));
#904=DIRECTION('ref_axis',(-1.,0.,0.));
#905=DIRECTION('',(-1.,0.,0.));
#906=DIRECTION('',(0.,1.,0.));
#907=DIRECTION('center_axis',(0.,1.,0.));
#908=DIRECTION('ref_axis',(1.,0.,1.90323947078599E-15));
#909=DIRECTION('center_axis',(0.,1.,0.));
#910=DIRECTION('ref_axis',(1.,0.,1.90323947078599E-15));
#911=DIRECTION('center_axis',(0.,1.,0.));
#912=DIRECTION('ref_axis',(1.,0.,0.));
#913=CARTESIAN_POINT('',(0.,0.,0.));
#914=CARTESIAN_POINT('Origin',(0.,-44.1868619932564,-5.));
#915=CARTESIAN_POINT('',(-5.,-46.,-5.));
#916=CARTESIAN_POINT('Origin',(0.,-46.,-5.));
#917=CARTESIAN_POINT('',(-5.,-44.,-5.));
#918=CARTESIAN_POINT('',(-5.,-44.1868619932564,-5.));
#919=CARTESIAN_POINT('Origin',(0.,-44.,-5.));
#920=CARTESIAN_POINT('Origin',(-7.50000011175871,-1.,38.0000005811453));
#921=CARTESIAN_POINT('',(15.,0.,38.0000005811453));
#922=CARTESIAN_POINT('',(15.0000002235174,-1.,39.0000005811453));
#923=CARTESIAN_POINT('Origin',(15.,-1.,38.0000005811453));
#924=CARTESIAN_POINT('',(-15.0000002235174,-1.,39.0000005811453));
#925=CARTESIAN_POINT('',(-7.50000011175871,-1.,39.0000005811453));
#926=CARTESIAN_POINT('',(-15.,0.,38.0000005811453));
#927=CARTESIAN_POINT('Origin',(-15.,-1.,38.0000005811453));
#928=CARTESIAN_POINT('',(-7.50000011175871,0.,38.0000005811453));
#929=CARTESIAN_POINT('Origin',(-15.0000002235174,0.,39.0000005811453));
#930=CARTESIAN_POINT('',(15.0000002235174,-43.,39.0000005811453));
#931=CARTESIAN_POINT('',(15.0000002235174,0.,39.0000005811453));
#932=CARTESIAN_POINT('',(-15.0000002235174,-43.,39.0000005811453));
#933=CARTESIAN_POINT('',(-15.0000002235174,-43.,39.0000005811453));
#934=CARTESIAN_POINT('',(-15.0000002235174,0.,39.0000005811453));
#935=CARTESIAN_POINT('Origin',(-15.0000002235174,-43.,38.0000005811453));
#936=CARTESIAN_POINT('',(15.0000002235174,-44.,38.0000005811453));
#937=CARTESIAN_POINT('Origin',(15.,-43.,38.0000005811453));
#938=CARTESIAN_POINT('',(-15.0000002235174,-44.,38.0000005811453));
#939=CARTESIAN_POINT('',(-15.0000002235174,-44.,38.0000005811453));
#940=CARTESIAN_POINT('Origin',(-15.,-43.,38.0000005811453));
#941=CARTESIAN_POINT('Origin',(-15.0000002235174,-44.,39.0000005811453));
#942=CARTESIAN_POINT('',(15.0000002235174,-44.,-13.9999994188547));
#943=CARTESIAN_POINT('',(15.0000002235174,-44.,39.0000005811453));
#944=CARTESIAN_POINT('',(8.,-44.,-20.9999994188547));
#945=CARTESIAN_POINT('Origin',(8.,-44.,-13.9999994188547));
#946=CARTESIAN_POINT('',(-8.,-44.,-20.9999994188547));
#947=CARTESIAN_POINT('',(15.0000002235174,-44.,-20.9999994188547));
#948=CARTESIAN_POINT('',(-15.0000002235174,-44.,-13.9999994188547));
#949=CARTESIAN_POINT('Origin',(-8.,-44.,-13.9999994188547));
#950=CARTESIAN_POINT('',(-15.0000002235174,-44.,39.0000005811453));
#951=CARTESIAN_POINT('Origin',(-15.,-1.,38.1451949968952));
#952=CARTESIAN_POINT('',(15.,0.,40.9736221216414));
#953=CARTESIAN_POINT('',(15.,2.,38.1451949968952));
#954=CARTESIAN_POINT('Origin',(15.,-1.,38.1451949968952));
#955=CARTESIAN_POINT('',(-15.,2.,38.1451949968952));
#956=CARTESIAN_POINT('',(-15.,2.,38.1451949968952));
#957=CARTESIAN_POINT('',(-15.,0.,40.9736221216414));
#958=CARTESIAN_POINT('Origin',(-15.,-1.,38.1451949968952));
#959=CARTESIAN_POINT('',(-15.,0.,40.9736221216414));
#960=CARTESIAN_POINT('Origin',(0.,2.,9.97362212164143));
#961=CARTESIAN_POINT('',(15.,2.,-14.0263778783586));
#962=CARTESIAN_POINT('',(15.,2.,40.9736221216414));
#963=CARTESIAN_POINT('',(8.,2.,-21.0263778783586));
#964=CARTESIAN_POINT('Origin',(8.00000000000001,2.,-14.0263778783586));
#965=CARTESIAN_POINT('',(-8.,2.,-21.0263778783586));
#966=CARTESIAN_POINT('',(8.,2.,-21.0263778783586));
#967=CARTESIAN_POINT('',(-15.,2.,-14.0263778783586));
#968=CARTESIAN_POINT('Origin',(-8.00000000000001,2.,-14.0263778783586));
#969=CARTESIAN_POINT('',(-15.,2.,-14.0263778783586));
#970=CARTESIAN_POINT('',(2.70000007450581,2.,-14.0000002086163));
#971=CARTESIAN_POINT('Origin',(5.00000007450581,2.,-14.0000002086163));
#972=CARTESIAN_POINT('',(2.70000007450581,2.,34.0000005066395));
#973=CARTESIAN_POINT('Origin',(5.00000007450581,2.,34.0000005066395));
#974=CARTESIAN_POINT('',(-7.30000007450581,2.,-14.0000002086163));
#975=CARTESIAN_POINT('Origin',(-5.00000007450581,2.,-14.0000002086163));
#976=CARTESIAN_POINT('',(10.5,2.,29.));
#977=CARTESIAN_POINT('',(9.89999999999999,2.,30.2));
#978=CARTESIAN_POINT('Origin',(9.,2.,29.));
#979=CARTESIAN_POINT('',(-9.9,2.,30.2));
#980=CARTESIAN_POINT('',(9.89999999999999,2.,30.2));
#981=CARTESIAN_POINT('',(-10.5,2.,29.));
#982=CARTESIAN_POINT('Origin',(-8.99999999999998,2.,29.));
#983=CARTESIAN_POINT('',(-10.5,2.,-9.));
#984=CARTESIAN_POINT('',(-10.5,2.,29.));
#985=CARTESIAN_POINT('',(-9.9,2.,-10.2));
#986=CARTESIAN_POINT('Origin',(-9.,2.,-9.));
#987=CARTESIAN_POINT('',(9.89999999999999,2.,-10.2));
#988=CARTESIAN_POINT('',(9.89999999999999,2.,-10.2));
#989=CARTESIAN_POINT('',(10.5,2.,-9.));
#990=CARTESIAN_POINT('Origin',(9.,2.,-9.));
#991=CARTESIAN_POINT('',(10.5,2.,29.));
#992=CARTESIAN_POINT('',(-7.30000007450581,2.,34.0000005066395));
#993=CARTESIAN_POINT('Origin',(-5.00000007450581,2.,34.0000005066395));
#994=CARTESIAN_POINT('Origin',(15.,0.,40.9736221216414));
#995=CARTESIAN_POINT('',(15.0000002235174,0.,41.0000006109476));
#996=CARTESIAN_POINT('',(15.0000002235174,0.,41.0000006109476));
#997=CARTESIAN_POINT('',(15.0000002235174,-43.,41.0000006109476));
#998=CARTESIAN_POINT('',(15.0000002235174,0.,41.0000006109476));
#999=CARTESIAN_POINT('',(15.0000002235174,-46.,38.0000006109476));
#1000=CARTESIAN_POINT('Origin',(15.,-43.,38.0000006109476));
#1001=CARTESIAN_POINT('',(15.0000002235174,-46.,-13.9999994188547));
#1002=CARTESIAN_POINT('',(15.0000002235174,-46.,39.0000005811453));
#1003=CARTESIAN_POINT('',(15.,-22.5,-13.9999994188547));
#1004=CARTESIAN_POINT('',(15.,0.,-14.0263778783586));
#1005=CARTESIAN_POINT('',(15.,0.,40.9736221216414));
#1006=CARTESIAN_POINT('',(15.,0.,-14.0263778783586));
#1007=CARTESIAN_POINT('Origin',(7.50000011175871,-43.,38.0000006109476));
#1008=CARTESIAN_POINT('',(-15.0000002235174,-43.,41.0000006109476));
#1009=CARTESIAN_POINT('',(-15.0000002235174,-46.,38.0000006109476));
#1010=CARTESIAN_POINT('Origin',(-15.,-43.,38.0000006109476));
#1011=CARTESIAN_POINT('',(7.50000011175871,-46.,38.0000006109476));
#1012=CARTESIAN_POINT('',(7.50000011175871,-43.,41.0000006109476));
#1013=CARTESIAN_POINT('Origin',(0.,-46.,40.0000005960464));
#1014=CARTESIAN_POINT('',(-15.0000002235174,-46.,-13.9999994188547));
#1015=CARTESIAN_POINT('',(-15.0000002235174,-46.,39.0000005811453));
#1016=CARTESIAN_POINT('',(-8.,-46.,-20.9999994188547));
#1017=CARTESIAN_POINT('Origin',(-8.,-46.,-13.9999994188547));
#1018=CARTESIAN_POINT('',(8.,-46.,-20.9999994188547));
#1019=CARTESIAN_POINT('',(-15.0000002235174,-46.,-20.9999994188547));
#1020=CARTESIAN_POINT('Origin',(8.,-46.,-13.9999994188547));
#1021=CARTESIAN_POINT('Origin',(8.,-22.5,-13.9999994188547));
#1022=CARTESIAN_POINT('',(8.,-22.5,-20.9999994188547));
#1023=CARTESIAN_POINT('Origin',(0.,-45.,-20.9999994188547));
#1024=CARTESIAN_POINT('',(-8.,-22.5,-20.9999994188547));
#1025=CARTESIAN_POINT('Origin',(-8.,-22.5,-13.9999994188547));
#1026=CARTESIAN_POINT('',(-15.,-22.5,-13.9999994188547));
#1027=CARTESIAN_POINT('Origin',(15.0000002235174,0.,41.0000006109476));
#1028=CARTESIAN_POINT('',(-15.0000002235174,0.,41.0000006109476));
#1029=CARTESIAN_POINT('',(-15.0000002235174,0.,41.0000006109476));
#1030=CARTESIAN_POINT('',(-15.0000002235174,0.,41.0000006109476));
#1031=CARTESIAN_POINT('Origin',(0.,0.,40.0000005960464));
#1032=CARTESIAN_POINT('',(-15.0000002235174,0.,39.0000005811453));
#1033=CARTESIAN_POINT('Origin',(5.00000007450581,0.,-14.0000002086163));
#1034=CARTESIAN_POINT('',(2.70000007450581,0.,-14.0000002086163));
#1035=CARTESIAN_POINT('',(2.70000007450581,0.,-14.0000002086163));
#1036=CARTESIAN_POINT('Origin',(5.00000007450581,0.,-14.0000002086163));
#1037=CARTESIAN_POINT('Origin',(5.00000007450581,0.,34.0000005066395));
#1038=CARTESIAN_POINT('',(2.70000007450581,0.,34.0000005066395));
#1039=CARTESIAN_POINT('',(2.70000007450581,0.,34.0000005066395));
#1040=CARTESIAN_POINT('Origin',(5.00000007450581,0.,34.0000005066395));
#1041=CARTESIAN_POINT('Origin',(-5.00000007450581,0.,-14.0000002086163));
#1042=CARTESIAN_POINT('',(-7.30000007450581,0.,-14.0000002086163));
#1043=CARTESIAN_POINT('',(-7.30000007450581,0.,-14.0000002086163));
#1044=CARTESIAN_POINT('Origin',(-5.00000007450581,0.,-14.0000002086163));
#1045=CARTESIAN_POINT('Origin',(10.5,0.,-9.));
#1046=CARTESIAN_POINT('',(10.5,0.,-9.));
#1047=CARTESIAN_POINT('',(10.5,0.,29.));
#1048=CARTESIAN_POINT('',(10.5,0.,29.));
#1049=CARTESIAN_POINT('',(10.5,0.,29.));
#1050=CARTESIAN_POINT('',(10.5,0.,-9.));
#1051=CARTESIAN_POINT('Origin',(9.,0.,-9.));
#1052=CARTESIAN_POINT('',(9.89999999999999,0.,-10.2));
#1053=CARTESIAN_POINT('Origin',(9.,0.,-9.));
#1054=CARTESIAN_POINT('',(9.89999999999999,0.,-10.2));
#1055=CARTESIAN_POINT('Origin',(-9.9,0.,-10.2));
#1056=CARTESIAN_POINT('',(-9.9,0.,-10.2));
#1057=CARTESIAN_POINT('',(9.89999999999999,0.,-10.2));
#1058=CARTESIAN_POINT('',(-9.9,0.,-10.2));
#1059=CARTESIAN_POINT('Origin',(-9.,0.,-9.));
#1060=CARTESIAN_POINT('',(-10.5,0.,-9.));
#1061=CARTESIAN_POINT('Origin',(-9.,0.,-9.));
#1062=CARTESIAN_POINT('',(-10.5,0.,-9.));
#1063=CARTESIAN_POINT('Origin',(-10.5,0.,29.));
#1064=CARTESIAN_POINT('',(-10.5,0.,29.));
#1065=CARTESIAN_POINT('',(-10.5,0.,29.));
#1066=CARTESIAN_POINT('',(-10.5,0.,29.));
#1067=CARTESIAN_POINT('Origin',(-8.99999999999998,0.,29.));
#1068=CARTESIAN_POINT('',(-9.9,0.,30.2));
#1069=CARTESIAN_POINT('Origin',(-8.99999999999998,0.,29.));
#1070=CARTESIAN_POINT('',(-9.9,0.,30.2));
#1071=CARTESIAN_POINT('Origin',(9.89999999999999,0.,30.2));
#1072=CARTESIAN_POINT('',(9.89999999999999,0.,30.2));
#1073=CARTESIAN_POINT('',(9.89999999999999,0.,30.2));
#1074=CARTESIAN_POINT('',(9.89999999999999,0.,30.2));
#1075=CARTESIAN_POINT('Origin',(9.,0.,29.));
#1076=CARTESIAN_POINT('Origin',(9.,0.,29.));
#1077=CARTESIAN_POINT('Origin',(-5.00000007450581,0.,34.0000005066395));
#1078=CARTESIAN_POINT('',(-7.30000007450581,0.,34.0000005066395));
#1079=CARTESIAN_POINT('',(-7.30000007450581,0.,34.0000005066395));
#1080=CARTESIAN_POINT('Origin',(-5.00000007450581,0.,34.0000005066395));
#1081=CARTESIAN_POINT('Origin',(-15.,0.,-14.0263778783586));
#1082=CARTESIAN_POINT('',(-15.,0.,-14.0263778783586));
#1083=CARTESIAN_POINT('',(-15.,0.,-14.0263778783586));
#1084=CARTESIAN_POINT('',(-15.,0.,-14.0263778783586));
#1085=CARTESIAN_POINT('Origin',(-8.00000000000001,0.,-14.0263778783586));
#1086=CARTESIAN_POINT('',(-8.,0.,-21.0263778783586));
#1087=CARTESIAN_POINT('Origin',(-8.00000000000001,0.,-14.0263778783586));
#1088=CARTESIAN_POINT('',(-8.,0.,-21.0263778783586));
#1089=CARTESIAN_POINT('Origin',(8.,0.,-21.0263778783586));
#1090=CARTESIAN_POINT('',(8.,0.,-21.0263778783586));
#1091=CARTESIAN_POINT('',(8.,0.,-21.0263778783586));
#1092=CARTESIAN_POINT('',(8.,0.,-21.0263778783586));
#1093=CARTESIAN_POINT('Origin',(8.00000000000001,0.,-14.0263778783586));
#1094=CARTESIAN_POINT('Origin',(8.00000000000001,0.,-14.0263778783586));
#1095=CARTESIAN_POINT('Origin',(0.,0.,9.97362212164143));
#1096=UNCERTAINTY_MEASURE_WITH_UNIT(LENGTH_MEASURE(0.01),#1100,
'DISTANCE_ACCURACY_VALUE',
'Maximum model space distance between geometric entities at asserted c
onnectivities');
#1097=UNCERTAINTY_MEASURE_WITH_UNIT(LENGTH_MEASURE(0.01),#1100,
'DISTANCE_ACCURACY_VALUE',
'Maximum model space distance between geometric entities at asserted c
onnectivities');
#1098=(
GEOMETRIC_REPRESENTATION_CONTEXT(3)
GLOBAL_UNCERTAINTY_ASSIGNED_CONTEXT((#1096))
GLOBAL_UNIT_ASSIGNED_CONTEXT((#1100,#1102,#1103))
REPRESENTATION_CONTEXT('','3D')
);
#1099=(
GEOMETRIC_REPRESENTATION_CONTEXT(3)
GLOBAL_UNCERTAINTY_ASSIGNED_CONTEXT((#1097))
GLOBAL_UNIT_ASSIGNED_CONTEXT((#1100,#1102,#1103))
REPRESENTATION_CONTEXT('','3D')
);
#1100=(
LENGTH_UNIT()
NAMED_UNIT(*)
SI_UNIT(.MILLI.,.METRE.)
);
#1101=(
LENGTH_UNIT()
NAMED_UNIT(*)
SI_UNIT($,.METRE.)
);
#1102=(
NAMED_UNIT(*)
PLANE_ANGLE_UNIT()
SI_UNIT($,.RADIAN.)
);
#1103=(
NAMED_UNIT(*)
SI_UNIT($,.STERADIAN.)
SOLID_ANGLE_UNIT()
);
#1104=SHAPE_DEFINITION_REPRESENTATION(#1105,#1106);
#1105=PRODUCT_DEFINITION_SHAPE('',$,#1108);
#1106=SHAPE_REPRESENTATION('',(#656),#1098);
#1107=PRODUCT_DEFINITION_CONTEXT('part definition',#1112,'design');
#1108=PRODUCT_DEFINITION('2025-09-19-09-11-28-246','FusionComponent',#1109,
#1107);
#1109=PRODUCT_DEFINITION_FORMATION('',$,#1114);
#1110=PRODUCT_RELATED_PRODUCT_CATEGORY('FusionComponent',
'FusionComponent',(#1114));
#1111=APPLICATION_PROTOCOL_DEFINITION('international standard',
'automotive_design',2009,#1112);
#1112=APPLICATION_CONTEXT(
'Core Data for Automotive Mechanical Design Process');
#1113=PRODUCT_CONTEXT('part definition',#1112,'mechanical');
#1114=PRODUCT('2025-09-19-09-11-28-246','FusionComponent',$,(#1113));
#1115=PRESENTATION_STYLE_ASSIGNMENT((#1116));
#1116=SURFACE_STYLE_USAGE(.BOTH.,#1117);
#1117=SURFACE_SIDE_STYLE('',(#1118));
#1118=SURFACE_STYLE_FILL_AREA(#1119);
#1119=FILL_AREA_STYLE('Steel - Satin',(#1120));
#1120=FILL_AREA_STYLE_COLOUR('Steel - Satin',#1121);
#1121=COLOUR_RGB('Steel - Satin',0.627450980392157,0.627450980392157,0.627450980392157);
ENDSEC;
END-ISO-10303-21;
