ISO-10303-21;
HEADER;
/* Generated by software containing ST-Developer
 * from STEP Tools, Inc. (www.steptools.com) 
 */

FILE_DESCRIPTION(
/* description */ (''),
/* implementation_level */ '2;1');

FILE_NAME(
/* name */ 'Component2.step',
/* time_stamp */ '2025-09-19T09:12:34+05:30',
/* author */ (''),
/* organization */ (''),
/* preprocessor_version */ 'ST-DEVELOPER v20.1',
/* originating_system */ 'Autodesk Translation Framework v14.17.0.0',
/* authorisation */ '');

FILE_SCHEMA (('AUTOMOTIVE_DESIGN { 1 0 10303 214 3 1 1 }'));
ENDSEC;

DATA;
#10=MECHANICAL_DESIGN_GEOMETRIC_PRESENTATION_REPRESENTATION('',(#13),#1109);
#11=SHAPE_REPRESENTATION_RELATIONSHIP('SRR','None',#1116,#12);
#12=ADVANCED_BREP_SHAPE_REPRESENTATION('',(#14),#1108);
#13=STYLED_ITEM('',(#1125),#14);
#14=MANIFOLD_SOLID_BREP('Body1',#657);
#15=FACE_BOUND('',#96,.T.);
#16=FACE_BOUND('',#100,.T.);
#17=FACE_BOUND('',#102,.T.);
#18=FACE_BOUND('',#103,.T.);
#19=FACE_BOUND('',#104,.T.);
#20=FACE_BOUND('',#105,.T.);
#21=FACE_BOUND('',#106,.T.);
#22=FACE_BOUND('',#113,.T.);
#23=FACE_BOUND('',#114,.T.);
#24=FACE_BOUND('',#115,.T.);
#25=FACE_BOUND('',#116,.T.);
#26=FACE_BOUND('',#117,.T.);
#27=FACE_BOUND('',#124,.T.);
#28=FACE_BOUND('',#125,.T.);
#29=FACE_BOUND('',#126,.T.);
#30=FACE_BOUND('',#128,.T.);
#31=FACE_BOUND('',#129,.T.);
#32=FACE_BOUND('',#130,.T.);
#33=PLANE('',#680);
#34=PLANE('',#684);
#35=PLANE('',#688);
#36=PLANE('',#692);
#37=PLANE('',#705);
#38=PLANE('',#707);
#39=PLANE('',#710);
#40=PLANE('',#711);
#41=PLANE('',#712);
#42=PLANE('',#713);
#43=PLANE('',#723);
#44=PLANE('',#724);
#45=PLANE('',#728);
#46=PLANE('',#732);
#47=PLANE('',#733);
#48=PLANE('',#734);
#49=FACE_OUTER_BOUND('',#81,.T.);
#50=FACE_OUTER_BOUND('',#82,.T.);
#51=FACE_OUTER_BOUND('',#83,.T.);
#52=FACE_OUTER_BOUND('',#84,.T.);
#53=FACE_OUTER_BOUND('',#85,.T.);
#54=FACE_OUTER_BOUND('',#86,.T.);
#55=FACE_OUTER_BOUND('',#87,.T.);
#56=FACE_OUTER_BOUND('',#88,.T.);
#57=FACE_OUTER_BOUND('',#89,.T.);
#58=FACE_OUTER_BOUND('',#90,.T.);
#59=FACE_OUTER_BOUND('',#91,.T.);
#60=FACE_OUTER_BOUND('',#92,.T.);
#61=FACE_OUTER_BOUND('',#93,.T.);
#62=FACE_OUTER_BOUND('',#94,.T.);
#63=FACE_OUTER_BOUND('',#95,.T.);
#64=FACE_OUTER_BOUND('',#97,.T.);
#65=FACE_OUTER_BOUND('',#98,.T.);
#66=FACE_OUTER_BOUND('',#99,.T.);
#67=FACE_OUTER_BOUND('',#101,.T.);
#68=FACE_OUTER_BOUND('',#107,.T.);
#69=FACE_OUTER_BOUND('',#108,.T.);
#70=FACE_OUTER_BOUND('',#109,.T.);
#71=FACE_OUTER_BOUND('',#110,.T.);
#72=FACE_OUTER_BOUND('',#111,.T.);
#73=FACE_OUTER_BOUND('',#112,.T.);
#74=FACE_OUTER_BOUND('',#118,.T.);
#75=FACE_OUTER_BOUND('',#119,.T.);
#76=FACE_OUTER_BOUND('',#120,.T.);
#77=FACE_OUTER_BOUND('',#121,.T.);
#78=FACE_OUTER_BOUND('',#122,.T.);
#79=FACE_OUTER_BOUND('',#123,.T.);
#80=FACE_OUTER_BOUND('',#127,.T.);
#81=EDGE_LOOP('',(#429,#430,#431,#432));
#82=EDGE_LOOP('',(#433,#434,#435,#436));
#83=EDGE_LOOP('',(#437,#438,#439,#440));
#84=EDGE_LOOP('',(#441,#442,#443,#444));
#85=EDGE_LOOP('',(#445,#446,#447,#448));
#86=EDGE_LOOP('',(#449,#450,#451,#452));
#87=EDGE_LOOP('',(#453,#454,#455,#456));
#88=EDGE_LOOP('',(#457,#458,#459,#460));
#89=EDGE_LOOP('',(#461,#462,#463,#464));
#90=EDGE_LOOP('',(#465,#466,#467,#468));
#91=EDGE_LOOP('',(#469,#470,#471,#472));
#92=EDGE_LOOP('',(#473,#474,#475,#476));
#93=EDGE_LOOP('',(#477,#478,#479,#480));
#94=EDGE_LOOP('',(#481,#482,#483,#484));
#95=EDGE_LOOP('',(#485,#486,#487,#488,#489,#490));
#96=EDGE_LOOP('',(#491));
#97=EDGE_LOOP('',(#492,#493,#494,#495));
#98=EDGE_LOOP('',(#496,#497,#498,#499));
#99=EDGE_LOOP('',(#500,#501,#502,#503,#504,#505));
#100=EDGE_LOOP('',(#506));
#101=EDGE_LOOP('',(#507,#508,#509,#510));
#102=EDGE_LOOP('',(#511));
#103=EDGE_LOOP('',(#512));
#104=EDGE_LOOP('',(#513));
#105=EDGE_LOOP('',(#514,#515,#516,#517,#518,#519,#520,#521));
#106=EDGE_LOOP('',(#522));
#107=EDGE_LOOP('',(#523,#524,#525,#526));
#108=EDGE_LOOP('',(#527,#528,#529,#530));
#109=EDGE_LOOP('',(#531,#532,#533,#534));
#110=EDGE_LOOP('',(#535,#536,#537,#538));
#111=EDGE_LOOP('',(#539,#540,#541,#542));
#112=EDGE_LOOP('',(#543,#544,#545,#546));
#113=EDGE_LOOP('',(#547));
#114=EDGE_LOOP('',(#548));
#115=EDGE_LOOP('',(#549));
#116=EDGE_LOOP('',(#550,#551,#552,#553,#554,#555,#556,#557));
#117=EDGE_LOOP('',(#558));
#118=EDGE_LOOP('',(#559,#560,#561,#562,#563,#564,#565,#566,#567,#568));
#119=EDGE_LOOP('',(#569,#570,#571,#572));
#120=EDGE_LOOP('',(#573,#574,#575,#576));
#121=EDGE_LOOP('',(#577,#578,#579,#580));
#122=EDGE_LOOP('',(#581,#582,#583,#584,#585,#586,#587,#588,#589,#590));
#123=EDGE_LOOP('',(#591,#592,#593,#594,#595,#596));
#124=EDGE_LOOP('',(#597));
#125=EDGE_LOOP('',(#598));
#126=EDGE_LOOP('',(#599));
#127=EDGE_LOOP('',(#600,#601,#602,#603,#604,#605));
#128=EDGE_LOOP('',(#606));
#129=EDGE_LOOP('',(#607));
#130=EDGE_LOOP('',(#608));
#131=LINE('',#928,#189);
#132=LINE('',#934,#190);
#133=LINE('',#940,#191);
#134=LINE('',#945,#192);
#135=LINE('',#947,#193);
#136=LINE('',#949,#194);
#137=LINE('',#950,#195);
#138=LINE('',#955,#196);
#139=LINE('',#959,#197);
#140=LINE('',#961,#198);
#141=LINE('',#962,#199);
#142=LINE('',#967,#200);
#143=LINE('',#971,#201);
#144=LINE('',#973,#202);
#145=LINE('',#974,#203);
#146=LINE('',#979,#204);
#147=LINE('',#983,#205);
#148=LINE('',#985,#206);
#149=LINE('',#986,#207);
#150=LINE('',#994,#208);
#151=LINE('',#1000,#209);
#152=LINE('',#1007,#210);
#153=LINE('',#1010,#211);
#154=LINE('',#1013,#212);
#155=LINE('',#1017,#213);
#156=LINE('',#1019,#214);
#157=LINE('',#1020,#215);
#158=LINE('',#1023,#216);
#159=LINE('',#1024,#217);
#160=LINE('',#1028,#218);
#161=LINE('',#1031,#219);
#162=LINE('',#1033,#220);
#163=LINE('',#1034,#221);
#164=LINE('',#1037,#222);
#165=LINE('',#1039,#223);
#166=LINE('',#1040,#224);
#167=LINE('',#1043,#225);
#168=LINE('',#1045,#226);
#169=LINE('',#1046,#227);
#170=LINE('',#1050,#228);
#171=LINE('',#1051,#229);
#172=LINE('',#1052,#230);
#173=LINE('',#1057,#231);
#174=LINE('',#1063,#232);
#175=LINE('',#1069,#233);
#176=LINE('',#1073,#234);
#177=LINE('',#1075,#235);
#178=LINE('',#1076,#236);
#179=LINE('',#1079,#237);
#180=LINE('',#1081,#238);
#181=LINE('',#1082,#239);
#182=LINE('',#1088,#240);
#183=LINE('',#1091,#241);
#184=LINE('',#1093,#242);
#185=LINE('',#1094,#243);
#186=LINE('',#1100,#244);
#187=LINE('',#1102,#245);
#188=LINE('',#1103,#246);
#189=VECTOR('',#741,2.3);
#190=VECTOR('',#748,2.3);
#191=VECTOR('',#755,2.3);
#192=VECTOR('',#760,10.);
#193=VECTOR('',#761,10.);
#194=VECTOR('',#762,10.);
#195=VECTOR('',#763,10.);
#196=VECTOR('',#768,10.);
#197=VECTOR('',#773,10.);
#198=VECTOR('',#774,10.);
#199=VECTOR('',#775,10.);
#200=VECTOR('',#780,10.);
#201=VECTOR('',#785,10.);
#202=VECTOR('',#786,10.);
#203=VECTOR('',#787,10.);
#204=VECTOR('',#792,10.);
#205=VECTOR('',#797,10.);
#206=VECTOR('',#798,10.);
#207=VECTOR('',#799,10.);
#208=VECTOR('',#810,2.3);
#209=VECTOR('',#817,5.);
#210=VECTOR('',#824,10.);
#211=VECTOR('',#827,10.);
#212=VECTOR('',#830,10.);
#213=VECTOR('',#833,10.);
#214=VECTOR('',#834,10.);
#215=VECTOR('',#835,10.);
#216=VECTOR('',#838,10.);
#217=VECTOR('',#839,10.);
#218=VECTOR('',#844,10.);
#219=VECTOR('',#847,10.);
#220=VECTOR('',#848,10.);
#221=VECTOR('',#849,10.);
#222=VECTOR('',#852,10.);
#223=VECTOR('',#853,10.);
#224=VECTOR('',#854,10.);
#225=VECTOR('',#857,10.);
#226=VECTOR('',#858,10.);
#227=VECTOR('',#859,10.);
#228=VECTOR('',#862,10.);
#229=VECTOR('',#863,10.);
#230=VECTOR('',#864,10.);
#231=VECTOR('',#869,1.2645);
#232=VECTOR('',#876,1.2645);
#233=VECTOR('',#883,1.5);
#234=VECTOR('',#888,10.);
#235=VECTOR('',#889,10.);
#236=VECTOR('',#890,10.);
#237=VECTOR('',#893,10.);
#238=VECTOR('',#894,10.);
#239=VECTOR('',#895,10.);
#240=VECTOR('',#902,10.);
#241=VECTOR('',#905,10.);
#242=VECTOR('',#906,10.);
#243=VECTOR('',#907,10.);
#244=VECTOR('',#914,10.);
#245=VECTOR('',#917,10.);
#246=VECTOR('',#918,10.);
#247=CIRCLE('',#672,2.3);
#248=CIRCLE('',#673,2.3);
#249=CIRCLE('',#675,2.3);
#250=CIRCLE('',#676,2.3);
#251=CIRCLE('',#678,2.3);
#252=CIRCLE('',#679,2.3);
#253=CIRCLE('',#682,1.5);
#254=CIRCLE('',#683,1.5);
#255=CIRCLE('',#686,1.49999999999999);
#256=CIRCLE('',#687,1.49999999999999);
#257=CIRCLE('',#690,1.50000000000001);
#258=CIRCLE('',#691,1.50000000000001);
#259=CIRCLE('',#694,1.5);
#260=CIRCLE('',#695,1.5);
#261=CIRCLE('',#697,2.3);
#262=CIRCLE('',#698,2.3);
#263=CIRCLE('',#700,5.);
#264=CIRCLE('',#701,5.);
#265=CIRCLE('',#703,7.);
#266=CIRCLE('',#704,7.);
#267=CIRCLE('',#706,7.);
#268=CIRCLE('',#709,7.);
#269=CIRCLE('',#715,1.2645);
#270=CIRCLE('',#716,1.2645);
#271=CIRCLE('',#718,1.2645);
#272=CIRCLE('',#719,1.2645);
#273=CIRCLE('',#721,1.5);
#274=CIRCLE('',#722,1.5);
#275=CIRCLE('',#726,7.);
#276=CIRCLE('',#727,7.);
#277=CIRCLE('',#730,6.99999999999999);
#278=CIRCLE('',#731,6.99999999999999);
#279=VERTEX_POINT('',#925);
#280=VERTEX_POINT('',#927);
#281=VERTEX_POINT('',#931);
#282=VERTEX_POINT('',#933);
#283=VERTEX_POINT('',#937);
#284=VERTEX_POINT('',#939);
#285=VERTEX_POINT('',#943);
#286=VERTEX_POINT('',#944);
#287=VERTEX_POINT('',#946);
#288=VERTEX_POINT('',#948);
#289=VERTEX_POINT('',#952);
#290=VERTEX_POINT('',#954);
#291=VERTEX_POINT('',#958);
#292=VERTEX_POINT('',#960);
#293=VERTEX_POINT('',#964);
#294=VERTEX_POINT('',#966);
#295=VERTEX_POINT('',#970);
#296=VERTEX_POINT('',#972);
#297=VERTEX_POINT('',#976);
#298=VERTEX_POINT('',#978);
#299=VERTEX_POINT('',#982);
#300=VERTEX_POINT('',#984);
#301=VERTEX_POINT('',#991);
#302=VERTEX_POINT('',#993);
#303=VERTEX_POINT('',#997);
#304=VERTEX_POINT('',#999);
#305=VERTEX_POINT('',#1003);
#306=VERTEX_POINT('',#1004);
#307=VERTEX_POINT('',#1006);
#308=VERTEX_POINT('',#1008);
#309=VERTEX_POINT('',#1012);
#310=VERTEX_POINT('',#1014);
#311=VERTEX_POINT('',#1016);
#312=VERTEX_POINT('',#1018);
#313=VERTEX_POINT('',#1022);
#314=VERTEX_POINT('',#1026);
#315=VERTEX_POINT('',#1030);
#316=VERTEX_POINT('',#1032);
#317=VERTEX_POINT('',#1036);
#318=VERTEX_POINT('',#1038);
#319=VERTEX_POINT('',#1042);
#320=VERTEX_POINT('',#1044);
#321=VERTEX_POINT('',#1048);
#322=VERTEX_POINT('',#1049);
#323=VERTEX_POINT('',#1054);
#324=VERTEX_POINT('',#1056);
#325=VERTEX_POINT('',#1060);
#326=VERTEX_POINT('',#1062);
#327=VERTEX_POINT('',#1066);
#328=VERTEX_POINT('',#1068);
#329=VERTEX_POINT('',#1072);
#330=VERTEX_POINT('',#1074);
#331=VERTEX_POINT('',#1078);
#332=VERTEX_POINT('',#1080);
#333=VERTEX_POINT('',#1084);
#334=VERTEX_POINT('',#1086);
#335=VERTEX_POINT('',#1090);
#336=VERTEX_POINT('',#1092);
#337=VERTEX_POINT('',#1096);
#338=VERTEX_POINT('',#1098);
#339=EDGE_CURVE('',#279,#279,#247,.T.);
#340=EDGE_CURVE('',#279,#280,#131,.T.);
#341=EDGE_CURVE('',#280,#280,#248,.T.);
#342=EDGE_CURVE('',#281,#281,#249,.T.);
#343=EDGE_CURVE('',#281,#282,#132,.T.);
#344=EDGE_CURVE('',#282,#282,#250,.T.);
#345=EDGE_CURVE('',#283,#283,#251,.T.);
#346=EDGE_CURVE('',#283,#284,#133,.T.);
#347=EDGE_CURVE('',#284,#284,#252,.T.);
#348=EDGE_CURVE('',#285,#286,#134,.T.);
#349=EDGE_CURVE('',#285,#287,#135,.T.);
#350=EDGE_CURVE('',#288,#287,#136,.T.);
#351=EDGE_CURVE('',#286,#288,#137,.T.);
#352=EDGE_CURVE('',#289,#285,#253,.T.);
#353=EDGE_CURVE('',#289,#290,#138,.T.);
#354=EDGE_CURVE('',#287,#290,#254,.T.);
#355=EDGE_CURVE('',#291,#289,#139,.T.);
#356=EDGE_CURVE('',#291,#292,#140,.T.);
#357=EDGE_CURVE('',#290,#292,#141,.T.);
#358=EDGE_CURVE('',#293,#291,#255,.T.);
#359=EDGE_CURVE('',#293,#294,#142,.T.);
#360=EDGE_CURVE('',#292,#294,#256,.T.);
#361=EDGE_CURVE('',#295,#293,#143,.T.);
#362=EDGE_CURVE('',#295,#296,#144,.T.);
#363=EDGE_CURVE('',#294,#296,#145,.T.);
#364=EDGE_CURVE('',#297,#295,#257,.T.);
#365=EDGE_CURVE('',#297,#298,#146,.T.);
#366=EDGE_CURVE('',#296,#298,#258,.T.);
#367=EDGE_CURVE('',#299,#297,#147,.T.);
#368=EDGE_CURVE('',#299,#300,#148,.T.);
#369=EDGE_CURVE('',#298,#300,#149,.T.);
#370=EDGE_CURVE('',#286,#299,#259,.T.);
#371=EDGE_CURVE('',#300,#288,#260,.T.);
#372=EDGE_CURVE('',#301,#301,#261,.T.);
#373=EDGE_CURVE('',#301,#302,#150,.T.);
#374=EDGE_CURVE('',#302,#302,#262,.T.);
#375=EDGE_CURVE('',#303,#303,#263,.T.);
#376=EDGE_CURVE('',#303,#304,#151,.T.);
#377=EDGE_CURVE('',#304,#304,#264,.T.);
#378=EDGE_CURVE('',#305,#306,#265,.T.);
#379=EDGE_CURVE('',#306,#307,#152,.T.);
#380=EDGE_CURVE('',#307,#308,#266,.T.);
#381=EDGE_CURVE('',#308,#305,#153,.T.);
#382=EDGE_CURVE('',#309,#305,#154,.T.);
#383=EDGE_CURVE('',#310,#309,#267,.T.);
#384=EDGE_CURVE('',#311,#310,#155,.T.);
#385=EDGE_CURVE('',#312,#311,#156,.T.);
#386=EDGE_CURVE('',#312,#306,#157,.T.);
#387=EDGE_CURVE('',#308,#313,#158,.T.);
#388=EDGE_CURVE('',#309,#313,#159,.T.);
#389=EDGE_CURVE('',#313,#314,#268,.T.);
#390=EDGE_CURVE('',#314,#310,#160,.T.);
#391=EDGE_CURVE('',#315,#307,#161,.T.);
#392=EDGE_CURVE('',#316,#315,#162,.T.);
#393=EDGE_CURVE('',#316,#314,#163,.T.);
#394=EDGE_CURVE('',#317,#315,#164,.T.);
#395=EDGE_CURVE('',#318,#317,#165,.T.);
#396=EDGE_CURVE('',#318,#316,#166,.T.);
#397=EDGE_CURVE('',#311,#319,#167,.T.);
#398=EDGE_CURVE('',#320,#319,#168,.T.);
#399=EDGE_CURVE('',#312,#320,#169,.T.);
#400=EDGE_CURVE('',#321,#322,#170,.T.);
#401=EDGE_CURVE('',#322,#320,#171,.T.);
#402=EDGE_CURVE('',#319,#321,#172,.T.);
#403=EDGE_CURVE('',#323,#323,#269,.T.);
#404=EDGE_CURVE('',#323,#324,#173,.T.);
#405=EDGE_CURVE('',#324,#324,#270,.T.);
#406=EDGE_CURVE('',#325,#325,#271,.T.);
#407=EDGE_CURVE('',#325,#326,#174,.T.);
#408=EDGE_CURVE('',#326,#326,#272,.T.);
#409=EDGE_CURVE('',#327,#327,#273,.T.);
#410=EDGE_CURVE('',#327,#328,#175,.T.);
#411=EDGE_CURVE('',#328,#328,#274,.T.);
#412=EDGE_CURVE('',#329,#321,#176,.T.);
#413=EDGE_CURVE('',#330,#329,#177,.T.);
#414=EDGE_CURVE('',#322,#330,#178,.T.);
#415=EDGE_CURVE('',#331,#330,#179,.T.);
#416=EDGE_CURVE('',#332,#331,#180,.T.);
#417=EDGE_CURVE('',#317,#332,#181,.T.);
#418=EDGE_CURVE('',#333,#332,#275,.T.);
#419=EDGE_CURVE('',#334,#331,#276,.T.);
#420=EDGE_CURVE('',#333,#334,#182,.T.);
#421=EDGE_CURVE('',#333,#335,#183,.T.);
#422=EDGE_CURVE('',#336,#334,#184,.T.);
#423=EDGE_CURVE('',#335,#336,#185,.T.);
#424=EDGE_CURVE('',#337,#335,#277,.T.);
#425=EDGE_CURVE('',#338,#336,#278,.T.);
#426=EDGE_CURVE('',#337,#338,#186,.T.);
#427=EDGE_CURVE('',#337,#318,#187,.T.);
#428=EDGE_CURVE('',#329,#338,#188,.T.);
#429=ORIENTED_EDGE('',*,*,#339,.F.);
#430=ORIENTED_EDGE('',*,*,#340,.T.);
#431=ORIENTED_EDGE('',*,*,#341,.F.);
#432=ORIENTED_EDGE('',*,*,#340,.F.);
#433=ORIENTED_EDGE('',*,*,#342,.F.);
#434=ORIENTED_EDGE('',*,*,#343,.T.);
#435=ORIENTED_EDGE('',*,*,#344,.F.);
#436=ORIENTED_EDGE('',*,*,#343,.F.);
#437=ORIENTED_EDGE('',*,*,#345,.F.);
#438=ORIENTED_EDGE('',*,*,#346,.T.);
#439=ORIENTED_EDGE('',*,*,#347,.F.);
#440=ORIENTED_EDGE('',*,*,#346,.F.);
#441=ORIENTED_EDGE('',*,*,#348,.F.);
#442=ORIENTED_EDGE('',*,*,#349,.T.);
#443=ORIENTED_EDGE('',*,*,#350,.F.);
#444=ORIENTED_EDGE('',*,*,#351,.F.);
#445=ORIENTED_EDGE('',*,*,#352,.F.);
#446=ORIENTED_EDGE('',*,*,#353,.T.);
#447=ORIENTED_EDGE('',*,*,#354,.F.);
#448=ORIENTED_EDGE('',*,*,#349,.F.);
#449=ORIENTED_EDGE('',*,*,#355,.F.);
#450=ORIENTED_EDGE('',*,*,#356,.T.);
#451=ORIENTED_EDGE('',*,*,#357,.F.);
#452=ORIENTED_EDGE('',*,*,#353,.F.);
#453=ORIENTED_EDGE('',*,*,#358,.F.);
#454=ORIENTED_EDGE('',*,*,#359,.T.);
#455=ORIENTED_EDGE('',*,*,#360,.F.);
#456=ORIENTED_EDGE('',*,*,#356,.F.);
#457=ORIENTED_EDGE('',*,*,#361,.F.);
#458=ORIENTED_EDGE('',*,*,#362,.T.);
#459=ORIENTED_EDGE('',*,*,#363,.F.);
#460=ORIENTED_EDGE('',*,*,#359,.F.);
#461=ORIENTED_EDGE('',*,*,#364,.F.);
#462=ORIENTED_EDGE('',*,*,#365,.T.);
#463=ORIENTED_EDGE('',*,*,#366,.F.);
#464=ORIENTED_EDGE('',*,*,#362,.F.);
#465=ORIENTED_EDGE('',*,*,#367,.F.);
#466=ORIENTED_EDGE('',*,*,#368,.T.);
#467=ORIENTED_EDGE('',*,*,#369,.F.);
#468=ORIENTED_EDGE('',*,*,#365,.F.);
#469=ORIENTED_EDGE('',*,*,#370,.F.);
#470=ORIENTED_EDGE('',*,*,#351,.T.);
#471=ORIENTED_EDGE('',*,*,#371,.F.);
#472=ORIENTED_EDGE('',*,*,#368,.F.);
#473=ORIENTED_EDGE('',*,*,#372,.F.);
#474=ORIENTED_EDGE('',*,*,#373,.T.);
#475=ORIENTED_EDGE('',*,*,#374,.F.);
#476=ORIENTED_EDGE('',*,*,#373,.F.);
#477=ORIENTED_EDGE('',*,*,#375,.F.);
#478=ORIENTED_EDGE('',*,*,#376,.T.);
#479=ORIENTED_EDGE('',*,*,#377,.F.);
#480=ORIENTED_EDGE('',*,*,#376,.F.);
#481=ORIENTED_EDGE('',*,*,#378,.T.);
#482=ORIENTED_EDGE('',*,*,#379,.T.);
#483=ORIENTED_EDGE('',*,*,#380,.T.);
#484=ORIENTED_EDGE('',*,*,#381,.T.);
#485=ORIENTED_EDGE('',*,*,#378,.F.);
#486=ORIENTED_EDGE('',*,*,#382,.F.);
#487=ORIENTED_EDGE('',*,*,#383,.F.);
#488=ORIENTED_EDGE('',*,*,#384,.F.);
#489=ORIENTED_EDGE('',*,*,#385,.F.);
#490=ORIENTED_EDGE('',*,*,#386,.T.);
#491=ORIENTED_EDGE('',*,*,#375,.T.);
#492=ORIENTED_EDGE('',*,*,#381,.F.);
#493=ORIENTED_EDGE('',*,*,#387,.T.);
#494=ORIENTED_EDGE('',*,*,#388,.F.);
#495=ORIENTED_EDGE('',*,*,#382,.T.);
#496=ORIENTED_EDGE('',*,*,#383,.T.);
#497=ORIENTED_EDGE('',*,*,#388,.T.);
#498=ORIENTED_EDGE('',*,*,#389,.T.);
#499=ORIENTED_EDGE('',*,*,#390,.T.);
#500=ORIENTED_EDGE('',*,*,#380,.F.);
#501=ORIENTED_EDGE('',*,*,#391,.F.);
#502=ORIENTED_EDGE('',*,*,#392,.F.);
#503=ORIENTED_EDGE('',*,*,#393,.T.);
#504=ORIENTED_EDGE('',*,*,#389,.F.);
#505=ORIENTED_EDGE('',*,*,#387,.F.);
#506=ORIENTED_EDGE('',*,*,#377,.T.);
#507=ORIENTED_EDGE('',*,*,#392,.T.);
#508=ORIENTED_EDGE('',*,*,#394,.F.);
#509=ORIENTED_EDGE('',*,*,#395,.F.);
#510=ORIENTED_EDGE('',*,*,#396,.T.);
#511=ORIENTED_EDGE('',*,*,#341,.T.);
#512=ORIENTED_EDGE('',*,*,#344,.T.);
#513=ORIENTED_EDGE('',*,*,#347,.T.);
#514=ORIENTED_EDGE('',*,*,#350,.T.);
#515=ORIENTED_EDGE('',*,*,#354,.T.);
#516=ORIENTED_EDGE('',*,*,#357,.T.);
#517=ORIENTED_EDGE('',*,*,#360,.T.);
#518=ORIENTED_EDGE('',*,*,#363,.T.);
#519=ORIENTED_EDGE('',*,*,#366,.T.);
#520=ORIENTED_EDGE('',*,*,#369,.T.);
#521=ORIENTED_EDGE('',*,*,#371,.T.);
#522=ORIENTED_EDGE('',*,*,#374,.T.);
#523=ORIENTED_EDGE('',*,*,#385,.T.);
#524=ORIENTED_EDGE('',*,*,#397,.T.);
#525=ORIENTED_EDGE('',*,*,#398,.F.);
#526=ORIENTED_EDGE('',*,*,#399,.F.);
#527=ORIENTED_EDGE('',*,*,#400,.T.);
#528=ORIENTED_EDGE('',*,*,#401,.T.);
#529=ORIENTED_EDGE('',*,*,#398,.T.);
#530=ORIENTED_EDGE('',*,*,#402,.T.);
#531=ORIENTED_EDGE('',*,*,#403,.F.);
#532=ORIENTED_EDGE('',*,*,#404,.T.);
#533=ORIENTED_EDGE('',*,*,#405,.T.);
#534=ORIENTED_EDGE('',*,*,#404,.F.);
#535=ORIENTED_EDGE('',*,*,#406,.F.);
#536=ORIENTED_EDGE('',*,*,#407,.T.);
#537=ORIENTED_EDGE('',*,*,#408,.T.);
#538=ORIENTED_EDGE('',*,*,#407,.F.);
#539=ORIENTED_EDGE('',*,*,#409,.F.);
#540=ORIENTED_EDGE('',*,*,#410,.T.);
#541=ORIENTED_EDGE('',*,*,#411,.T.);
#542=ORIENTED_EDGE('',*,*,#410,.F.);
#543=ORIENTED_EDGE('',*,*,#412,.F.);
#544=ORIENTED_EDGE('',*,*,#413,.F.);
#545=ORIENTED_EDGE('',*,*,#414,.F.);
#546=ORIENTED_EDGE('',*,*,#400,.F.);
#547=ORIENTED_EDGE('',*,*,#339,.T.);
#548=ORIENTED_EDGE('',*,*,#342,.T.);
#549=ORIENTED_EDGE('',*,*,#345,.T.);
#550=ORIENTED_EDGE('',*,*,#348,.T.);
#551=ORIENTED_EDGE('',*,*,#370,.T.);
#552=ORIENTED_EDGE('',*,*,#367,.T.);
#553=ORIENTED_EDGE('',*,*,#364,.T.);
#554=ORIENTED_EDGE('',*,*,#361,.T.);
#555=ORIENTED_EDGE('',*,*,#358,.T.);
#556=ORIENTED_EDGE('',*,*,#355,.T.);
#557=ORIENTED_EDGE('',*,*,#352,.T.);
#558=ORIENTED_EDGE('',*,*,#372,.T.);
#559=ORIENTED_EDGE('',*,*,#379,.F.);
#560=ORIENTED_EDGE('',*,*,#386,.F.);
#561=ORIENTED_EDGE('',*,*,#399,.T.);
#562=ORIENTED_EDGE('',*,*,#401,.F.);
#563=ORIENTED_EDGE('',*,*,#414,.T.);
#564=ORIENTED_EDGE('',*,*,#415,.F.);
#565=ORIENTED_EDGE('',*,*,#416,.F.);
#566=ORIENTED_EDGE('',*,*,#417,.F.);
#567=ORIENTED_EDGE('',*,*,#394,.T.);
#568=ORIENTED_EDGE('',*,*,#391,.T.);
#569=ORIENTED_EDGE('',*,*,#418,.T.);
#570=ORIENTED_EDGE('',*,*,#416,.T.);
#571=ORIENTED_EDGE('',*,*,#419,.F.);
#572=ORIENTED_EDGE('',*,*,#420,.F.);
#573=ORIENTED_EDGE('',*,*,#421,.F.);
#574=ORIENTED_EDGE('',*,*,#420,.T.);
#575=ORIENTED_EDGE('',*,*,#422,.F.);
#576=ORIENTED_EDGE('',*,*,#423,.F.);
#577=ORIENTED_EDGE('',*,*,#424,.T.);
#578=ORIENTED_EDGE('',*,*,#423,.T.);
#579=ORIENTED_EDGE('',*,*,#425,.F.);
#580=ORIENTED_EDGE('',*,*,#426,.F.);
#581=ORIENTED_EDGE('',*,*,#390,.F.);
#582=ORIENTED_EDGE('',*,*,#393,.F.);
#583=ORIENTED_EDGE('',*,*,#396,.F.);
#584=ORIENTED_EDGE('',*,*,#427,.F.);
#585=ORIENTED_EDGE('',*,*,#426,.T.);
#586=ORIENTED_EDGE('',*,*,#428,.F.);
#587=ORIENTED_EDGE('',*,*,#412,.T.);
#588=ORIENTED_EDGE('',*,*,#402,.F.);
#589=ORIENTED_EDGE('',*,*,#397,.F.);
#590=ORIENTED_EDGE('',*,*,#384,.T.);
#591=ORIENTED_EDGE('',*,*,#428,.T.);
#592=ORIENTED_EDGE('',*,*,#425,.T.);
#593=ORIENTED_EDGE('',*,*,#422,.T.);
#594=ORIENTED_EDGE('',*,*,#419,.T.);
#595=ORIENTED_EDGE('',*,*,#415,.T.);
#596=ORIENTED_EDGE('',*,*,#413,.T.);
#597=ORIENTED_EDGE('',*,*,#409,.T.);
#598=ORIENTED_EDGE('',*,*,#406,.T.);
#599=ORIENTED_EDGE('',*,*,#403,.T.);
#600=ORIENTED_EDGE('',*,*,#395,.T.);
#601=ORIENTED_EDGE('',*,*,#417,.T.);
#602=ORIENTED_EDGE('',*,*,#418,.F.);
#603=ORIENTED_EDGE('',*,*,#421,.T.);
#604=ORIENTED_EDGE('',*,*,#424,.F.);
#605=ORIENTED_EDGE('',*,*,#427,.T.);
#606=ORIENTED_EDGE('',*,*,#411,.F.);
#607=ORIENTED_EDGE('',*,*,#408,.F.);
#608=ORIENTED_EDGE('',*,*,#405,.F.);
#609=CYLINDRICAL_SURFACE('',#671,2.3);
#610=CYLINDRICAL_SURFACE('',#674,2.3);
#611=CYLINDRICAL_SURFACE('',#677,2.3);
#612=CYLINDRICAL_SURFACE('',#681,1.5);
#613=CYLINDRICAL_SURFACE('',#685,1.49999999999999);
#614=CYLINDRICAL_SURFACE('',#689,1.50000000000001);
#615=CYLINDRICAL_SURFACE('',#693,1.5);
#616=CYLINDRICAL_SURFACE('',#696,2.3);
#617=CYLINDRICAL_SURFACE('',#699,5.);
#618=CYLINDRICAL_SURFACE('',#702,7.);
#619=CYLINDRICAL_SURFACE('',#708,7.);
#620=CYLINDRICAL_SURFACE('',#714,1.2645);
#621=CYLINDRICAL_SURFACE('',#717,1.2645);
#622=CYLINDRICAL_SURFACE('',#720,1.5);
#623=CYLINDRICAL_SURFACE('',#725,7.);
#624=CYLINDRICAL_SURFACE('',#729,6.99999999999999);
#625=ADVANCED_FACE('',(#49),#609,.F.);
#626=ADVANCED_FACE('',(#50),#610,.F.);
#627=ADVANCED_FACE('',(#51),#611,.F.);
#628=ADVANCED_FACE('',(#52),#33,.F.);
#629=ADVANCED_FACE('',(#53),#612,.F.);
#630=ADVANCED_FACE('',(#54),#34,.F.);
#631=ADVANCED_FACE('',(#55),#613,.F.);
#632=ADVANCED_FACE('',(#56),#35,.F.);
#633=ADVANCED_FACE('',(#57),#614,.F.);
#634=ADVANCED_FACE('',(#58),#36,.F.);
#635=ADVANCED_FACE('',(#59),#615,.F.);
#636=ADVANCED_FACE('',(#60),#616,.F.);
#637=ADVANCED_FACE('',(#61),#617,.F.);
#638=ADVANCED_FACE('',(#62),#618,.T.);
#639=ADVANCED_FACE('',(#63,#15),#37,.T.);
#640=ADVANCED_FACE('',(#64),#38,.T.);
#641=ADVANCED_FACE('',(#65),#619,.T.);
#642=ADVANCED_FACE('',(#66,#16),#39,.T.);
#643=ADVANCED_FACE('',(#67,#17,#18,#19,#20,#21),#40,.T.);
#644=ADVANCED_FACE('',(#68),#41,.T.);
#645=ADVANCED_FACE('',(#69),#42,.T.);
#646=ADVANCED_FACE('',(#70),#620,.F.);
#647=ADVANCED_FACE('',(#71),#621,.F.);
#648=ADVANCED_FACE('',(#72),#622,.F.);
#649=ADVANCED_FACE('',(#73,#22,#23,#24,#25,#26),#43,.T.);
#650=ADVANCED_FACE('',(#74),#44,.T.);
#651=ADVANCED_FACE('',(#75),#623,.T.);
#652=ADVANCED_FACE('',(#76),#45,.T.);
#653=ADVANCED_FACE('',(#77),#624,.T.);
#654=ADVANCED_FACE('',(#78),#46,.T.);
#655=ADVANCED_FACE('',(#79,#27,#28,#29),#47,.T.);
#656=ADVANCED_FACE('',(#80,#30,#31,#32),#48,.F.);
#657=CLOSED_SHELL('',(#625,#626,#627,#628,#629,#630,#631,#632,#633,#634,
#635,#636,#637,#638,#639,#640,#641,#642,#643,#644,#645,#646,#647,#648,#649,
#650,#651,#652,#653,#654,#655,#656));
#658=DERIVED_UNIT_ELEMENT(#660,1.);
#659=DERIVED_UNIT_ELEMENT(#1111,-3.);
#660=(
MASS_UNIT()
NAMED_UNIT(*)
SI_UNIT(.KILO.,.GRAM.)
);
#661=DERIVED_UNIT((#658,#659));
#662=MEASURE_REPRESENTATION_ITEM('density measure',
POSITIVE_RATIO_MEASURE(7850.),#661);
#663=PROPERTY_DEFINITION_REPRESENTATION(#668,#665);
#664=PROPERTY_DEFINITION_REPRESENTATION(#669,#666);
#665=REPRESENTATION('material name',(#667),#1108);
#666=REPRESENTATION('density',(#662),#1108);
#667=DESCRIPTIVE_REPRESENTATION_ITEM('Steel','Steel');
#668=PROPERTY_DEFINITION('material property','material name',#1118);
#669=PROPERTY_DEFINITION('material property','density of part',#1118);
#670=AXIS2_PLACEMENT_3D('',#923,#735,#736);
#671=AXIS2_PLACEMENT_3D('',#924,#737,#738);
#672=AXIS2_PLACEMENT_3D('',#926,#739,#740);
#673=AXIS2_PLACEMENT_3D('',#929,#742,#743);
#674=AXIS2_PLACEMENT_3D('',#930,#744,#745);
#675=AXIS2_PLACEMENT_3D('',#932,#746,#747);
#676=AXIS2_PLACEMENT_3D('',#935,#749,#750);
#677=AXIS2_PLACEMENT_3D('',#936,#751,#752);
#678=AXIS2_PLACEMENT_3D('',#938,#753,#754);
#679=AXIS2_PLACEMENT_3D('',#941,#756,#757);
#680=AXIS2_PLACEMENT_3D('',#942,#758,#759);
#681=AXIS2_PLACEMENT_3D('',#951,#764,#765);
#682=AXIS2_PLACEMENT_3D('',#953,#766,#767);
#683=AXIS2_PLACEMENT_3D('',#956,#769,#770);
#684=AXIS2_PLACEMENT_3D('',#957,#771,#772);
#685=AXIS2_PLACEMENT_3D('',#963,#776,#777);
#686=AXIS2_PLACEMENT_3D('',#965,#778,#779);
#687=AXIS2_PLACEMENT_3D('',#968,#781,#782);
#688=AXIS2_PLACEMENT_3D('',#969,#783,#784);
#689=AXIS2_PLACEMENT_3D('',#975,#788,#789);
#690=AXIS2_PLACEMENT_3D('',#977,#790,#791);
#691=AXIS2_PLACEMENT_3D('',#980,#793,#794);
#692=AXIS2_PLACEMENT_3D('',#981,#795,#796);
#693=AXIS2_PLACEMENT_3D('',#987,#800,#801);
#694=AXIS2_PLACEMENT_3D('',#988,#802,#803);
#695=AXIS2_PLACEMENT_3D('',#989,#804,#805);
#696=AXIS2_PLACEMENT_3D('',#990,#806,#807);
#697=AXIS2_PLACEMENT_3D('',#992,#808,#809);
#698=AXIS2_PLACEMENT_3D('',#995,#811,#812);
#699=AXIS2_PLACEMENT_3D('',#996,#813,#814);
#700=AXIS2_PLACEMENT_3D('',#998,#815,#816);
#701=AXIS2_PLACEMENT_3D('',#1001,#818,#819);
#702=AXIS2_PLACEMENT_3D('',#1002,#820,#821);
#703=AXIS2_PLACEMENT_3D('',#1005,#822,#823);
#704=AXIS2_PLACEMENT_3D('',#1009,#825,#826);
#705=AXIS2_PLACEMENT_3D('',#1011,#828,#829);
#706=AXIS2_PLACEMENT_3D('',#1015,#831,#832);
#707=AXIS2_PLACEMENT_3D('',#1021,#836,#837);
#708=AXIS2_PLACEMENT_3D('',#1025,#840,#841);
#709=AXIS2_PLACEMENT_3D('',#1027,#842,#843);
#710=AXIS2_PLACEMENT_3D('',#1029,#845,#846);
#711=AXIS2_PLACEMENT_3D('',#1035,#850,#851);
#712=AXIS2_PLACEMENT_3D('',#1041,#855,#856);
#713=AXIS2_PLACEMENT_3D('',#1047,#860,#861);
#714=AXIS2_PLACEMENT_3D('',#1053,#865,#866);
#715=AXIS2_PLACEMENT_3D('',#1055,#867,#868);
#716=AXIS2_PLACEMENT_3D('',#1058,#870,#871);
#717=AXIS2_PLACEMENT_3D('',#1059,#872,#873);
#718=AXIS2_PLACEMENT_3D('',#1061,#874,#875);
#719=AXIS2_PLACEMENT_3D('',#1064,#877,#878);
#720=AXIS2_PLACEMENT_3D('',#1065,#879,#880);
#721=AXIS2_PLACEMENT_3D('',#1067,#881,#882);
#722=AXIS2_PLACEMENT_3D('',#1070,#884,#885);
#723=AXIS2_PLACEMENT_3D('',#1071,#886,#887);
#724=AXIS2_PLACEMENT_3D('',#1077,#891,#892);
#725=AXIS2_PLACEMENT_3D('',#1083,#896,#897);
#726=AXIS2_PLACEMENT_3D('',#1085,#898,#899);
#727=AXIS2_PLACEMENT_3D('',#1087,#900,#901);
#728=AXIS2_PLACEMENT_3D('',#1089,#903,#904);
#729=AXIS2_PLACEMENT_3D('',#1095,#908,#909);
#730=AXIS2_PLACEMENT_3D('',#1097,#910,#911);
#731=AXIS2_PLACEMENT_3D('',#1099,#912,#913);
#732=AXIS2_PLACEMENT_3D('',#1101,#915,#916);
#733=AXIS2_PLACEMENT_3D('',#1104,#919,#920);
#734=AXIS2_PLACEMENT_3D('',#1105,#921,#922);
#735=DIRECTION('axis',(0.,0.,1.));
#736=DIRECTION('refdir',(1.,0.,0.));
#737=DIRECTION('center_axis',(0.,0.,1.));
#738=DIRECTION('ref_axis',(1.,0.,0.));
#739=DIRECTION('center_axis',(2.15109257214063E-30,5.91974386177083E-16,
1.));
#740=DIRECTION('ref_axis',(1.,0.,0.));
#741=DIRECTION('',(0.,0.,1.));
#742=DIRECTION('center_axis',(0.,0.,-1.));
#743=DIRECTION('ref_axis',(1.,0.,0.));
#744=DIRECTION('center_axis',(0.,0.,1.));
#745=DIRECTION('ref_axis',(1.,0.,0.));
#746=DIRECTION('center_axis',(2.15109257214063E-30,5.91974386177083E-16,
1.));
#747=DIRECTION('ref_axis',(1.,0.,0.));
#748=DIRECTION('',(0.,0.,1.));
#749=DIRECTION('center_axis',(0.,0.,-1.));
#750=DIRECTION('ref_axis',(1.,0.,0.));
#751=DIRECTION('center_axis',(0.,0.,1.));
#752=DIRECTION('ref_axis',(1.,0.,0.));
#753=DIRECTION('center_axis',(2.15109257214063E-30,5.91974386177083E-16,
1.));
#754=DIRECTION('ref_axis',(1.,0.,0.));
#755=DIRECTION('',(0.,0.,1.));
#756=DIRECTION('center_axis',(0.,0.,-1.));
#757=DIRECTION('ref_axis',(1.,0.,0.));
#758=DIRECTION('center_axis',(1.,0.,0.));
#759=DIRECTION('ref_axis',(0.,1.,0.));
#760=DIRECTION('',(0.,1.,-5.91974386177083E-16));
#761=DIRECTION('',(0.,0.,1.));
#762=DIRECTION('',(0.,-1.,0.));
#763=DIRECTION('',(0.,0.,1.));
#764=DIRECTION('center_axis',(0.,0.,1.));
#765=DIRECTION('ref_axis',(1.,0.,0.));
#766=DIRECTION('center_axis',(2.15109257214063E-30,5.91974386177083E-16,
1.));
#767=DIRECTION('ref_axis',(1.,0.,0.));
#768=DIRECTION('',(0.,0.,1.));
#769=DIRECTION('center_axis',(0.,0.,-1.));
#770=DIRECTION('ref_axis',(1.,0.,0.));
#771=DIRECTION('center_axis',(-4.48574959444508E-16,-1.,0.));
#772=DIRECTION('ref_axis',(1.,-4.48574959444508E-16,0.));
#773=DIRECTION('',(1.,-4.48574959444508E-16,-1.88554768586905E-30));
#774=DIRECTION('',(0.,0.,1.));
#775=DIRECTION('',(-1.,4.48574959444508E-16,0.));
#776=DIRECTION('center_axis',(0.,0.,1.));
#777=DIRECTION('ref_axis',(-0.599999999999999,-0.800000000000001,0.));
#778=DIRECTION('center_axis',(2.15109257214063E-30,5.91974386177083E-16,
1.));
#779=DIRECTION('ref_axis',(-0.599999999999999,-0.800000000000001,0.));
#780=DIRECTION('',(0.,0.,1.));
#781=DIRECTION('center_axis',(0.,0.,-1.));
#782=DIRECTION('ref_axis',(-0.599999999999999,-0.800000000000001,0.));
#783=DIRECTION('center_axis',(-1.,1.1686558153949E-16,0.));
#784=DIRECTION('ref_axis',(-1.1686558153949E-16,-1.,0.));
#785=DIRECTION('',(-1.1686558153949E-16,-1.,5.91974386177083E-16));
#786=DIRECTION('',(0.,0.,1.));
#787=DIRECTION('',(1.1686558153949E-16,1.,0.));
#788=DIRECTION('center_axis',(0.,0.,1.));
#789=DIRECTION('ref_axis',(-1.,0.,0.));
#790=DIRECTION('center_axis',(2.15109257214063E-30,5.91974386177083E-16,
1.));
#791=DIRECTION('ref_axis',(-1.,0.,0.));
#792=DIRECTION('',(0.,0.,1.));
#793=DIRECTION('center_axis',(0.,0.,-1.));
#794=DIRECTION('ref_axis',(-1.,0.,0.));
#795=DIRECTION('center_axis',(0.,1.,0.));
#796=DIRECTION('ref_axis',(-1.,0.,0.));
#797=DIRECTION('',(-1.,0.,2.15109257214063E-30));
#798=DIRECTION('',(0.,0.,1.));
#799=DIRECTION('',(1.,0.,0.));
#800=DIRECTION('center_axis',(0.,0.,1.));
#801=DIRECTION('ref_axis',(0.599999999999993,0.800000000000005,0.));
#802=DIRECTION('center_axis',(2.15109257214063E-30,5.91974386177083E-16,
1.));
#803=DIRECTION('ref_axis',(0.599999999999993,0.800000000000005,0.));
#804=DIRECTION('center_axis',(0.,0.,-1.));
#805=DIRECTION('ref_axis',(0.599999999999993,0.800000000000005,0.));
#806=DIRECTION('center_axis',(0.,0.,1.));
#807=DIRECTION('ref_axis',(1.,0.,0.));
#808=DIRECTION('center_axis',(2.15109257214063E-30,5.91974386177083E-16,
1.));
#809=DIRECTION('ref_axis',(1.,0.,0.));
#810=DIRECTION('',(0.,0.,1.));
#811=DIRECTION('center_axis',(0.,0.,-1.));
#812=DIRECTION('ref_axis',(1.,0.,0.));
#813=DIRECTION('center_axis',(0.,1.,0.));
#814=DIRECTION('ref_axis',(1.,0.,0.));
#815=DIRECTION('center_axis',(0.,1.,0.));
#816=DIRECTION('ref_axis',(1.,0.,0.));
#817=DIRECTION('',(0.,1.,0.));
#818=DIRECTION('center_axis',(0.,-1.,0.));
#819=DIRECTION('ref_axis',(1.,0.,0.));
#820=DIRECTION('center_axis',(3.60822483003176E-15,1.,0.));
#821=DIRECTION('ref_axis',(0.707106781186548,-2.24298922669111E-15,0.707106781186548));
#822=DIRECTION('center_axis',(0.,1.,0.));
#823=DIRECTION('ref_axis',(0.707106781186548,-2.24298922669111E-15,0.707106781186548));
#824=DIRECTION('',(3.60822483003176E-15,1.,0.));
#825=DIRECTION('center_axis',(0.,-1.,0.));
#826=DIRECTION('ref_axis',(0.707106781186548,-2.24298922669111E-15,0.707106781186548));
#827=DIRECTION('',(-3.60822483003176E-15,-1.,0.));
#828=DIRECTION('center_axis',(0.,-1.,0.));
#829=DIRECTION('ref_axis',(1.,0.,0.));
#830=DIRECTION('',(1.,0.,0.));
#831=DIRECTION('center_axis',(0.,1.,0.));
#832=DIRECTION('ref_axis',(-0.707106781186547,2.69158707202933E-15,0.707106781186548));
#833=DIRECTION('',(0.,0.,1.));
#834=DIRECTION('',(-1.,0.,0.));
#835=DIRECTION('',(0.,0.,1.));
#836=DIRECTION('center_axis',(0.,0.,1.));
#837=DIRECTION('ref_axis',(1.,0.,0.));
#838=DIRECTION('',(-1.,0.,0.));
#839=DIRECTION('',(3.60822483003176E-15,1.,0.));
#840=DIRECTION('center_axis',(-3.60822483003176E-15,-1.,0.));
#841=DIRECTION('ref_axis',(-0.707106781186547,2.69158707202933E-15,0.707106781186548));
#842=DIRECTION('center_axis',(0.,-1.,0.));
#843=DIRECTION('ref_axis',(-0.707106781186547,2.69158707202933E-15,0.707106781186548));
#844=DIRECTION('',(-3.60822483003176E-15,-1.,0.));
#845=DIRECTION('center_axis',(0.,1.,0.));
#846=DIRECTION('ref_axis',(-1.,0.,0.));
#847=DIRECTION('',(0.,0.,1.));
#848=DIRECTION('',(1.,0.,0.));
#849=DIRECTION('',(0.,0.,1.));
#850=DIRECTION('center_axis',(0.,0.,1.));
#851=DIRECTION('ref_axis',(-1.,0.,0.));
#852=DIRECTION('',(1.37744792137116E-16,-1.,0.));
#853=DIRECTION('',(1.,-3.63375953819926E-15,0.));
#854=DIRECTION('',(1.37744792137116E-16,-1.,0.));
#855=DIRECTION('center_axis',(0.,0.,1.));
#856=DIRECTION('ref_axis',(-1.,0.,0.));
#857=DIRECTION('',(1.37744792137116E-16,-1.,0.));
#858=DIRECTION('',(-1.,0.,0.));
#859=DIRECTION('',(1.37744792137116E-16,-1.,0.));
#860=DIRECTION('center_axis',(1.37744792137116E-16,-1.,0.));
#861=DIRECTION('ref_axis',(0.,0.,-1.));
#862=DIRECTION('',(1.,0.,0.));
#863=DIRECTION('',(0.,0.,1.));
#864=DIRECTION('',(0.,0.,-1.));
#865=DIRECTION('center_axis',(3.60822483003176E-15,1.,-5.91974386177083E-16));
#866=DIRECTION('ref_axis',(-1.,3.60822483003176E-15,1.51158931936695E-32));
#867=DIRECTION('center_axis',(-3.63375953819926E-15,-1.,5.91974386177083E-16));
#868=DIRECTION('ref_axis',(-1.,3.63375953819926E-15,9.69279066968929E-46));
#869=DIRECTION('',(-3.60822483003176E-15,-1.,5.91974386177083E-16));
#870=DIRECTION('center_axis',(-3.63375953819926E-15,-1.,5.91974386177083E-16));
#871=DIRECTION('ref_axis',(-1.,3.63375953819926E-15,9.69279066968929E-46));
#872=DIRECTION('center_axis',(3.60822483003176E-15,1.,-5.91974386177083E-16));
#873=DIRECTION('ref_axis',(-1.,3.60822483003176E-15,1.51158931936694E-32));
#874=DIRECTION('center_axis',(-3.63375953819926E-15,-1.,5.91974386177083E-16));
#875=DIRECTION('ref_axis',(-1.,3.63375953819926E-15,9.26363319264678E-46));
#876=DIRECTION('',(-3.60822483003176E-15,-1.,5.91974386177083E-16));
#877=DIRECTION('center_axis',(-3.63375953819926E-15,-1.,5.91974386177083E-16));
#878=DIRECTION('ref_axis',(-1.,3.63375953819926E-15,9.26363319264678E-46));
#879=DIRECTION('center_axis',(3.60822483003176E-15,1.,-5.91974386177083E-16));
#880=DIRECTION('ref_axis',(-1.,3.60822483003176E-15,1.51158931936697E-32));
#881=DIRECTION('center_axis',(-3.63375953819926E-15,-1.,5.91974386177083E-16));
#882=DIRECTION('ref_axis',(-1.,3.63375953819926E-15,9.04905445412553E-46));
#883=DIRECTION('',(-3.60822483003176E-15,-1.,5.91974386177083E-16));
#884=DIRECTION('center_axis',(-3.63375953819926E-15,-1.,5.91974386177083E-16));
#885=DIRECTION('ref_axis',(-1.,3.63375953819926E-15,9.04905445412553E-46));
#886=DIRECTION('center_axis',(-2.15109257214063E-30,-5.91974386177083E-16,
-1.));
#887=DIRECTION('ref_axis',(-1.,3.63375953819926E-15,0.));
#888=DIRECTION('',(1.37744792137116E-16,-1.,0.));
#889=DIRECTION('',(-1.,3.63375953819926E-15,0.));
#890=DIRECTION('',(3.60822483003176E-15,1.,-5.91974386177083E-16));
#891=DIRECTION('center_axis',(1.,-3.60822483003176E-15,-1.51158931936698E-32));
#892=DIRECTION('ref_axis',(-2.15109257214063E-30,-5.91974386177083E-16,
-1.));
#893=DIRECTION('',(-2.15109257214063E-30,-5.91974386177083E-16,-1.));
#894=DIRECTION('',(3.60822483003176E-15,1.,-5.91974386177083E-16));
#895=DIRECTION('',(2.15109257214063E-30,5.91974386177083E-16,1.));
#896=DIRECTION('center_axis',(3.60822483003176E-15,1.,-5.91974386177083E-16));
#897=DIRECTION('ref_axis',(2.15109257214063E-30,5.91974386177083E-16,1.));
#898=DIRECTION('center_axis',(3.63375953819926E-15,1.,-5.91974386177083E-16));
#899=DIRECTION('ref_axis',(2.15109257214063E-30,5.91974386177083E-16,1.));
#900=DIRECTION('center_axis',(3.63375953819926E-15,1.,-5.91974386177083E-16));
#901=DIRECTION('ref_axis',(2.15109257214063E-30,5.91974386177083E-16,1.));
#902=DIRECTION('',(3.60822483003176E-15,1.,-5.91974386177083E-16));
#903=DIRECTION('center_axis',(2.15109257214063E-30,5.91974386177083E-16,
1.));
#904=DIRECTION('ref_axis',(1.,-3.63375953819926E-15,0.));
#905=DIRECTION('',(-1.,3.63375953819926E-15,0.));
#906=DIRECTION('',(1.,-3.63375953819926E-15,0.));
#907=DIRECTION('',(3.60822483003176E-15,1.,-5.91974386177083E-16));
#908=DIRECTION('center_axis',(3.60822483003176E-15,1.,-5.91974386177083E-16));
#909=DIRECTION('ref_axis',(-1.,3.60822483003175E-15,-6.34413156928661E-16));
#910=DIRECTION('center_axis',(3.63375953819926E-15,1.,-5.91974386177083E-16));
#911=DIRECTION('ref_axis',(-1.,3.63375953819926E-15,-6.34413156928661E-16));
#912=DIRECTION('center_axis',(3.63375953819926E-15,1.,-5.91974386177083E-16));
#913=DIRECTION('ref_axis',(-1.,3.63375953819926E-15,-6.34413156928661E-16));
#914=DIRECTION('',(3.60822483003176E-15,1.,-5.91974386177083E-16));
#915=DIRECTION('center_axis',(-1.,3.60822483003176E-15,1.51158931936698E-32));
#916=DIRECTION('ref_axis',(2.15109257214063E-30,5.91974386177083E-16,1.));
#917=DIRECTION('',(-2.15109257214063E-30,-5.91974386177083E-16,-1.));
#918=DIRECTION('',(2.15109257214063E-30,5.91974386177083E-16,1.));
#919=DIRECTION('center_axis',(3.63375953819926E-15,1.,-5.91974386177083E-16));
#920=DIRECTION('ref_axis',(-1.,3.63375953819926E-15,0.));
#921=DIRECTION('center_axis',(3.63375953819926E-15,1.,-5.91974386177083E-16));
#922=DIRECTION('ref_axis',(-1.,3.63375953819926E-15,0.));
#923=CARTESIAN_POINT('',(0.,0.,0.));
#924=CARTESIAN_POINT('Origin',(5.00000007450581,13.0000005066395,-57.252567220858));
#925=CARTESIAN_POINT('',(2.70000007450581,13.0000005066395,-57.252567220858));
#926=CARTESIAN_POINT('Origin',(5.00000007450581,13.0000005066395,-57.252567220858));
#927=CARTESIAN_POINT('',(2.70000007450581,13.0000005066395,-55.252567220858));
#928=CARTESIAN_POINT('',(2.70000007450581,13.0000005066395,-57.252567220858));
#929=CARTESIAN_POINT('Origin',(5.00000007450581,13.0000005066395,-55.252567220858));
#930=CARTESIAN_POINT('Origin',(-5.00000007450581,13.0000005066395,-57.252567220858));
#931=CARTESIAN_POINT('',(-7.30000007450581,13.0000005066395,-57.252567220858));
#932=CARTESIAN_POINT('Origin',(-5.00000007450581,13.0000005066395,-57.252567220858));
#933=CARTESIAN_POINT('',(-7.30000007450581,13.0000005066395,-55.252567220858));
#934=CARTESIAN_POINT('',(-7.30000007450581,13.0000005066395,-57.252567220858));
#935=CARTESIAN_POINT('Origin',(-5.00000007450581,13.0000005066395,-55.252567220858));
#936=CARTESIAN_POINT('Origin',(-5.00000007450581,-35.0000002086163,-57.252567220858));
#937=CARTESIAN_POINT('',(-7.30000007450581,-35.0000002086163,-57.252567220858));
#938=CARTESIAN_POINT('Origin',(-5.00000007450581,-35.0000002086163,-57.252567220858));
#939=CARTESIAN_POINT('',(-7.30000007450581,-35.0000002086163,-55.252567220858));
#940=CARTESIAN_POINT('',(-7.30000007450581,-35.0000002086163,-57.252567220858));
#941=CARTESIAN_POINT('Origin',(-5.00000007450581,-35.0000002086163,-55.252567220858));
#942=CARTESIAN_POINT('Origin',(10.5,-30.,-57.252567220858));
#943=CARTESIAN_POINT('',(10.5,-30.,-57.252567220858));
#944=CARTESIAN_POINT('',(10.5,7.99999999999999,-57.252567220858));
#945=CARTESIAN_POINT('',(10.5,-4.85400088445508,-57.252567220858));
#946=CARTESIAN_POINT('',(10.5,-30.,-55.252567220858));
#947=CARTESIAN_POINT('',(10.5,-30.,-57.252567220858));
#948=CARTESIAN_POINT('',(10.5,7.99999999999999,-55.252567220858));
#949=CARTESIAN_POINT('',(10.5,-4.85400088445503,-55.252567220858));
#950=CARTESIAN_POINT('',(10.5,7.99999999999999,-57.252567220858));
#951=CARTESIAN_POINT('Origin',(9.,-30.,-57.252567220858));
#952=CARTESIAN_POINT('',(9.89999999999999,-31.2,-57.252567220858));
#953=CARTESIAN_POINT('Origin',(9.,-30.,-57.252567220858));
#954=CARTESIAN_POINT('',(9.89999999999999,-31.2,-55.252567220858));
#955=CARTESIAN_POINT('',(9.89999999999999,-31.2,-57.252567220858));
#956=CARTESIAN_POINT('Origin',(9.,-30.,-55.252567220858));
#957=CARTESIAN_POINT('Origin',(-9.9,-31.2,-57.252567220858));
#958=CARTESIAN_POINT('',(-9.9,-31.2,-57.252567220858));
#959=CARTESIAN_POINT('',(2.55000011174906,-31.2,-57.252567220858));
#960=CARTESIAN_POINT('',(-9.9,-31.2,-55.252567220858));
#961=CARTESIAN_POINT('',(-9.9,-31.2,-57.252567220858));
#962=CARTESIAN_POINT('',(2.5500001117587,-31.2,-55.252567220858));
#963=CARTESIAN_POINT('Origin',(-9.,-30.,-57.252567220858));
#964=CARTESIAN_POINT('',(-10.5,-30.,-57.252567220858));
#965=CARTESIAN_POINT('Origin',(-9.,-30.,-57.252567220858));
#966=CARTESIAN_POINT('',(-10.5,-30.,-55.252567220858));
#967=CARTESIAN_POINT('',(-10.5,-30.,-57.252567220858));
#968=CARTESIAN_POINT('Origin',(-9.,-30.,-55.252567220858));
#969=CARTESIAN_POINT('Origin',(-10.5,7.99999999999999,-57.252567220858));
#970=CARTESIAN_POINT('',(-10.5,7.99999999999999,-57.252567220858));
#971=CARTESIAN_POINT('',(-10.5,14.1459991155449,-57.252567220858));
#972=CARTESIAN_POINT('',(-10.5,7.99999999999999,-55.252567220858));
#973=CARTESIAN_POINT('',(-10.5,7.99999999999999,-57.252567220858));
#974=CARTESIAN_POINT('',(-10.5,14.145999115545,-55.252567220858));
#975=CARTESIAN_POINT('Origin',(-8.99999999999998,7.99999999999999,-57.252567220858));
#976=CARTESIAN_POINT('',(-9.9,9.2,-57.252567220858));
#977=CARTESIAN_POINT('Origin',(-8.99999999999998,7.99999999999999,-57.252567220858));
#978=CARTESIAN_POINT('',(-9.9,9.2,-55.252567220858));
#979=CARTESIAN_POINT('',(-9.9,9.2,-57.252567220858));
#980=CARTESIAN_POINT('Origin',(-8.99999999999998,7.99999999999999,-55.252567220858));
#981=CARTESIAN_POINT('Origin',(9.89999999999999,9.2,-57.252567220858));
#982=CARTESIAN_POINT('',(9.89999999999999,9.2,-57.252567220858));
#983=CARTESIAN_POINT('',(12.4500001117491,9.2,-57.252567220858));
#984=CARTESIAN_POINT('',(9.89999999999999,9.2,-55.252567220858));
#985=CARTESIAN_POINT('',(9.89999999999999,9.2,-57.252567220858));
#986=CARTESIAN_POINT('',(12.4500001117587,9.2,-55.252567220858));
#987=CARTESIAN_POINT('Origin',(9.,7.99999999999999,-57.252567220858));
#988=CARTESIAN_POINT('Origin',(9.,7.99999999999999,-57.252567220858));
#989=CARTESIAN_POINT('Origin',(9.,7.99999999999999,-55.252567220858));
#990=CARTESIAN_POINT('Origin',(5.00000007450581,-35.0000002086163,-57.252567220858));
#991=CARTESIAN_POINT('',(2.70000007450581,-35.0000002086163,-57.252567220858));
#992=CARTESIAN_POINT('Origin',(5.00000007450581,-35.0000002086163,-57.252567220858));
#993=CARTESIAN_POINT('',(2.70000007450581,-35.0000002086163,-55.252567220858));
#994=CARTESIAN_POINT('',(2.70000007450581,-35.0000002086163,-57.252567220858));
#995=CARTESIAN_POINT('Origin',(5.00000007450581,-35.0000002086163,-55.252567220858));
#996=CARTESIAN_POINT('Origin',(0.,-44.1868619932564,-5.));
#997=CARTESIAN_POINT('',(-5.,-44.1868619932564,-5.));
#998=CARTESIAN_POINT('Origin',(0.,-44.1868619932564,-5.));
#999=CARTESIAN_POINT('',(-5.,-42.1868619932564,-5.));
#1000=CARTESIAN_POINT('',(-5.,-44.1868619932564,-5.));
#1001=CARTESIAN_POINT('Origin',(0.,-42.1868619932564,-5.));
#1002=CARTESIAN_POINT('Origin',(8.00000022349803,-11.4474318810832,6.74743277914197));
#1003=CARTESIAN_POINT('',(8.00000022349791,-44.1868619932564,13.747432779142));
#1004=CARTESIAN_POINT('',(15.0000002235174,-44.1868619932564,6.74743277914197));
#1005=CARTESIAN_POINT('Origin',(8.00000022349791,-44.1868619932565,6.74743277914197));
#1006=CARTESIAN_POINT('',(15.0000002235174,-42.1868619932564,6.74743277914197));
#1007=CARTESIAN_POINT('',(15.000000223498,-11.4474318810833,6.74743277914197));
#1008=CARTESIAN_POINT('',(8.00000022349792,-42.1868619932564,13.747432779142));
#1009=CARTESIAN_POINT('Origin',(8.00000022349792,-42.1868619932563,6.74743277914197));
#1010=CARTESIAN_POINT('',(8.00000022349803,-11.4474318810832,13.747432779142));
#1011=CARTESIAN_POINT('Origin',(-15.0000002235174,-44.1868619932564,-55.252567220858));
#1012=CARTESIAN_POINT('',(-8.00000022350209,-44.1868619932564,13.747432779142));
#1013=CARTESIAN_POINT('',(15.0000002235174,-44.1868619932564,13.747432779142));
#1014=CARTESIAN_POINT('',(-15.0000002235174,-44.1868619932564,6.74743277914197));
#1015=CARTESIAN_POINT('Origin',(-8.00000022350209,-44.1868619932564,6.74743277914197));
#1016=CARTESIAN_POINT('',(-15.0000002235174,-44.1868619932564,-55.252567220858));
#1017=CARTESIAN_POINT('',(-15.0000002235174,-44.1868619932564,-55.252567220858));
#1018=CARTESIAN_POINT('',(15.0000002235174,-44.1868619932564,-55.252567220858));
#1019=CARTESIAN_POINT('',(0.,-44.1868619932564,-55.252567220858));
#1020=CARTESIAN_POINT('',(15.0000002235174,-44.1868619932564,-55.252567220858));
#1021=CARTESIAN_POINT('Origin',(0.,-43.1868619932564,13.747432779142));
#1022=CARTESIAN_POINT('',(-8.00000022350208,-42.1868619932564,13.747432779142));
#1023=CARTESIAN_POINT('',(-15.0000002235174,-42.1868619932564,13.747432779142));
#1024=CARTESIAN_POINT('',(-8.00000022350197,-11.4474318810832,13.747432779142));
#1025=CARTESIAN_POINT('Origin',(-8.00000022350197,-11.4474318810832,6.74743277914197));
#1026=CARTESIAN_POINT('',(-15.0000002235174,-42.1868619932564,6.74743277914197));
#1027=CARTESIAN_POINT('Origin',(-8.00000022350208,-42.1868619932563,6.74743277914197));
#1028=CARTESIAN_POINT('',(-15.000000223502,-11.4474318810832,6.74743277914197));
#1029=CARTESIAN_POINT('Origin',(15.0000002235174,-42.1868619932564,-55.252567220858));
#1030=CARTESIAN_POINT('',(15.0000002235174,-42.1868619932564,-55.252567220858));
#1031=CARTESIAN_POINT('',(15.0000002235174,-42.1868619932564,-55.252567220858));
#1032=CARTESIAN_POINT('',(-15.0000002235174,-42.1868619932564,-55.252567220858));
#1033=CARTESIAN_POINT('',(15.0000002235174,-42.1868619932564,-55.252567220858));
#1034=CARTESIAN_POINT('',(-15.0000002235174,-42.1868619932564,-55.252567220858));
#1035=CARTESIAN_POINT('Origin',(15.0000002235174,20.2919982310899,-55.252567220858));
#1036=CARTESIAN_POINT('',(15.0000002235174,20.2919982310899,-55.252567220858));
#1037=CARTESIAN_POINT('',(15.0000002235174,20.2919982310899,-55.252567220858));
#1038=CARTESIAN_POINT('',(-15.0000002235019,20.2919982310899,-55.252567220858));
#1039=CARTESIAN_POINT('',(7.50000011175778,20.2919982310899,-55.252567220858));
#1040=CARTESIAN_POINT('',(-15.0000002235019,20.2919982310899,-55.252567220858));
#1041=CARTESIAN_POINT('Origin',(15.0000002235174,20.2919982310899,-55.252567220858));
#1042=CARTESIAN_POINT('',(-15.0000002235019,-44.1880017689101,-55.252567220858));
#1043=CARTESIAN_POINT('',(-15.0000002235019,20.2919982310899,-55.252567220858));
#1044=CARTESIAN_POINT('',(15.0000002235174,-44.1880017689101,-55.252567220858));
#1045=CARTESIAN_POINT('',(-15.0000002235019,-44.1880017689101,-55.252567220858));
#1046=CARTESIAN_POINT('',(15.0000002235174,20.2919982310899,-55.252567220858));
#1047=CARTESIAN_POINT('Origin',(7.75379760398209E-12,-44.1880017689101,
-56.252567220858));
#1048=CARTESIAN_POINT('',(-15.0000002235019,-44.1880017689101,-57.252567220858));
#1049=CARTESIAN_POINT('',(15.0000002235174,-44.1880017689101,-57.252567220858));
#1050=CARTESIAN_POINT('',(15.0000002235174,-44.1880017689101,-57.252567220858));
#1051=CARTESIAN_POINT('',(15.0000002235174,-44.1880017689101,-55.252567220858));
#1052=CARTESIAN_POINT('',(-15.0000002235019,-44.1880017689101,-57.252567220858));
#1053=CARTESIAN_POINT('Origin',(3.29494246745284E-14,20.2919982310899,-6.99999999999995));
#1054=CARTESIAN_POINT('',(1.26450000000004,22.2919982310899,-6.99999999999995));
#1055=CARTESIAN_POINT('Origin',(4.01658743345919E-14,22.2919982310899,-6.99999999999995));
#1056=CARTESIAN_POINT('',(1.26450000000003,20.2919982310899,-6.99999999999995));
#1057=CARTESIAN_POINT('',(1.26450000000003,20.2919982310899,-6.99999999999995));
#1058=CARTESIAN_POINT('Origin',(3.29494246745284E-14,20.2919982310899,-6.99999999999995));
#1059=CARTESIAN_POINT('Origin',(2.74752361088868E-14,20.2919982310899,6.99999999999995));
#1060=CARTESIAN_POINT('',(1.26450000000004,22.2919982310899,6.99999999999994));
#1061=CARTESIAN_POINT('Origin',(3.46916857689503E-14,22.2919982310899,6.99999999999994));
#1062=CARTESIAN_POINT('',(1.26450000000003,20.2919982310899,6.99999999999995));
#1063=CARTESIAN_POINT('',(1.26450000000003,20.2919982310899,6.99999999999995));
#1064=CARTESIAN_POINT('Origin',(2.74752361088868E-14,20.2919982310899,6.99999999999995));
#1065=CARTESIAN_POINT('Origin',(3.06409567714092E-14,20.2919982310899,-3.23534447643456E-15));
#1066=CARTESIAN_POINT('',(1.50000000000004,22.2919982310899,-4.60299026866083E-15));
#1067=CARTESIAN_POINT('Origin',(3.78574064314727E-14,22.2919982310899,-4.41929324878873E-15));
#1068=CARTESIAN_POINT('',(1.50000000000003,20.2919982310899,-3.41904149630667E-15));
#1069=CARTESIAN_POINT('',(1.50000000000003,20.2919982310899,-3.41904149630667E-15));
#1070=CARTESIAN_POINT('Origin',(3.06409567714092E-14,20.2919982310899,-3.23534447643456E-15));
#1071=CARTESIAN_POINT('Origin',(15.0000002234981,20.2919982310899,-57.252567220858));
#1072=CARTESIAN_POINT('',(-15.0000002235018,22.29199823109,-57.2525672208581));
#1073=CARTESIAN_POINT('',(-15.0000002235019,20.2919982310899,-57.252567220858));
#1074=CARTESIAN_POINT('',(15.0000002234981,22.2919982310899,-57.2525672208581));
#1075=CARTESIAN_POINT('',(-15.0000002235018,22.29199823109,-57.252567220858));
#1076=CARTESIAN_POINT('',(15.0000002234981,20.2919982310899,-57.252567220858));
#1077=CARTESIAN_POINT('Origin',(15.0000002234981,20.2919982310899,6.74743277914196));
#1078=CARTESIAN_POINT('',(15.0000002234981,22.2919982310899,6.74743277914195));
#1079=CARTESIAN_POINT('',(15.0000002234981,22.2919982310899,-57.252567220858));
#1080=CARTESIAN_POINT('',(15.0000002234981,20.2919982310899,6.74743277914195));
#1081=CARTESIAN_POINT('',(15.0000002234981,20.2919982310899,6.74743277914195));
#1082=CARTESIAN_POINT('',(15.0000002234981,20.2919982310899,-57.252567220858));
#1083=CARTESIAN_POINT('Origin',(8.00000022349814,20.2919982310899,6.74743277914195));
#1084=CARTESIAN_POINT('',(8.00000022349814,20.2919982310899,13.747432779142));
#1085=CARTESIAN_POINT('Origin',(8.00000022349814,20.2919982310899,6.74743277914195));
#1086=CARTESIAN_POINT('',(8.00000022349815,22.2919982310899,13.747432779142));
#1087=CARTESIAN_POINT('Origin',(8.00000022349815,22.2919982310899,6.74743277914195));
#1088=CARTESIAN_POINT('',(8.00000022349814,20.2919982310899,13.747432779142));
#1089=CARTESIAN_POINT('Origin',(-8.00000022350186,20.29199823109,13.747432779142));
#1090=CARTESIAN_POINT('',(-8.00000022350186,20.29199823109,13.747432779142));
#1091=CARTESIAN_POINT('',(8.00000022349814,20.2919982310899,13.747432779142));
#1092=CARTESIAN_POINT('',(-8.00000022350186,22.29199823109,13.747432779142));
#1093=CARTESIAN_POINT('',(8.00000022349815,22.2919982310899,13.747432779142));
#1094=CARTESIAN_POINT('',(-8.00000022350186,20.29199823109,13.747432779142));
#1095=CARTESIAN_POINT('Origin',(-8.00000022350186,20.29199823109,6.74743277914196));
#1096=CARTESIAN_POINT('',(-15.0000002235019,20.29199823109,6.74743277914196));
#1097=CARTESIAN_POINT('Origin',(-8.00000022350186,20.29199823109,6.74743277914196));
#1098=CARTESIAN_POINT('',(-15.0000002235018,22.29199823109,6.74743277914196));
#1099=CARTESIAN_POINT('Origin',(-8.00000022350186,22.29199823109,6.74743277914196));
#1100=CARTESIAN_POINT('',(-15.0000002235019,20.29199823109,6.74743277914196));
#1101=CARTESIAN_POINT('Origin',(-15.0000002235019,20.29199823109,-57.252567220858));
#1102=CARTESIAN_POINT('',(-15.0000002235019,20.29199823109,6.74743277914196));
#1103=CARTESIAN_POINT('',(-15.0000002235018,22.29199823109,6.74743277914196));
#1104=CARTESIAN_POINT('Origin',(-1.84861492501711E-12,22.2919982310899,
-21.7525672208581));
#1105=CARTESIAN_POINT('Origin',(-1.85583137467718E-12,20.2919982310899,
-21.7525672208581));
#1106=UNCERTAINTY_MEASURE_WITH_UNIT(LENGTH_MEASURE(0.01),#1110,
'DISTANCE_ACCURACY_VALUE',
'Maximum model space distance between geometric entities at asserted c
onnectivities');
#1107=UNCERTAINTY_MEASURE_WITH_UNIT(LENGTH_MEASURE(0.01),#1110,
'DISTANCE_ACCURACY_VALUE',
'Maximum model space distance between geometric entities at asserted c
onnectivities');
#1108=(
GEOMETRIC_REPRESENTATION_CONTEXT(3)
GLOBAL_UNCERTAINTY_ASSIGNED_CONTEXT((#1106))
GLOBAL_UNIT_ASSIGNED_CONTEXT((#1110,#1112,#1113))
REPRESENTATION_CONTEXT('','3D')
);
#1109=(
GEOMETRIC_REPRESENTATION_CONTEXT(3)
GLOBAL_UNCERTAINTY_ASSIGNED_CONTEXT((#1107))
GLOBAL_UNIT_ASSIGNED_CONTEXT((#1110,#1112,#1113))
REPRESENTATION_CONTEXT('','3D')
);
#1110=(
LENGTH_UNIT()
NAMED_UNIT(*)
SI_UNIT(.MILLI.,.METRE.)
);
#1111=(
LENGTH_UNIT()
NAMED_UNIT(*)
SI_UNIT($,.METRE.)
);
#1112=(
NAMED_UNIT(*)
PLANE_ANGLE_UNIT()
SI_UNIT($,.RADIAN.)
);
#1113=(
NAMED_UNIT(*)
SI_UNIT($,.STERADIAN.)
SOLID_ANGLE_UNIT()
);
#1114=SHAPE_DEFINITION_REPRESENTATION(#1115,#1116);
#1115=PRODUCT_DEFINITION_SHAPE('',$,#1118);
#1116=SHAPE_REPRESENTATION('',(#670),#1108);
#1117=PRODUCT_DEFINITION_CONTEXT('part definition',#1122,'design');
#1118=PRODUCT_DEFINITION('2025-09-19-09-12-34-413','FusionComponent',#1119,
#1117);
#1119=PRODUCT_DEFINITION_FORMATION('',$,#1124);
#1120=PRODUCT_RELATED_PRODUCT_CATEGORY('FusionComponent',
'FusionComponent',(#1124));
#1121=APPLICATION_PROTOCOL_DEFINITION('international standard',
'automotive_design',2009,#1122);
#1122=APPLICATION_CONTEXT(
'Core Data for Automotive Mechanical Design Process');
#1123=PRODUCT_CONTEXT('part definition',#1122,'mechanical');
#1124=PRODUCT('2025-09-19-09-12-34-413','FusionComponent',$,(#1123));
#1125=PRESENTATION_STYLE_ASSIGNMENT((#1126));
#1126=SURFACE_STYLE_USAGE(.BOTH.,#1127);
#1127=SURFACE_SIDE_STYLE('',(#1128));
#1128=SURFACE_STYLE_FILL_AREA(#1129);
#1129=FILL_AREA_STYLE('Steel - Satin',(#1130));
#1130=FILL_AREA_STYLE_COLOUR('Steel - Satin',#1131);
#1131=COLOUR_RGB('Steel - Satin',0.627450980392157,0.627450980392157,0.627450980392157);
ENDSEC;
END-ISO-10303-21;
